<?xml version="1.0" encoding="UTF-8"?>
<svg version="1.1" xmlns="http://www.w3.org/2000/svg" width="600" height="200">
<path d="M0 0 C5.61 0 11.22 0 17 0 C17.5775 2.31 18.155 4.62 18.75 7 C21.24628472 16.52828906 24.11750394 24.20905809 32.8125 29.8125 C38.50903287 31.93473774 44.03955339 31.69128864 49.66796875 29.37109375 C55.94328285 25.68158747 61.4422938 20.33436419 66.74227905 15.36709595 C83.65773071 -0.13682789 102.96254472 -1.4022733 124.78790283 -0.68664551 C128.32151228 -0.58227512 131.85590198 -0.53824718 135.390625 -0.48828125 C142.26224177 -0.38267846 149.13089805 -0.21323005 156 0 C151.66603237 4.57765153 148.23938068 5.88992912 142.02539062 6.10107422 C138.43183433 6.08915099 134.84266001 6.01761991 131.25 5.9375 C109.24423541 5.7263675 84.98887977 7.93857586 68.04296875 23.8359375 C66.79106738 25.1273726 65.54904192 26.42844502 64.31640625 27.73828125 C61.26740743 30.71529696 57.98099279 33.31665374 54.625 35.9375 C54.00520264 36.42250977 53.38540527 36.90751953 52.74682617 37.40722656 C48.29599209 40.85200396 48.29599209 40.85200396 46 42 C50.43681915 42.27333539 54.87221995 42.52845293 59.3125 42.73828125 C61.97595289 42.86796049 64.53963473 43.07076093 67.1875 43.41796875 C73.3122753 44.04685193 76.75843109 42.2557598 81.5 38.5 C83.1522561 37.13550736 84.7839952 35.75100128 86.40673828 34.3515625 C88.83659523 32.29031701 91.37457032 30.39176899 93.9375 28.5 C94.77152344 27.8709375 95.60554688 27.241875 96.46484375 26.59375 C102.89624898 22.55058616 109.5979991 22.09114673 117 23 C121.48502314 24.54131326 125.34543945 26.93416167 129.31640625 29.4921875 C141.92530858 37.51036921 155.18620168 40.1762652 169.9375 40.1875 C171.20110352 40.20586914 171.20110352 40.20586914 172.49023438 40.22460938 C184.20807412 40.25167136 194.46769836 37.37781906 203 29 C209.39669988 20.04693363 212.84638648 10.44634477 216 0 C221.94 0 227.88 0 234 0 C233.33150481 18.71786536 228.04891295 36.58436987 219 53 C218.64384865 53.69034867 218.2876973 54.38069735 217.92075348 55.09196568 C215.51627352 57.48052326 213.77916692 57.48327631 210.47063875 57.53031152 C209.71490682 57.52070652 208.95917489 57.51110151 208.18054199 57.50120544 C207.3756356 57.50673984 206.57072921 57.51227424 205.74143171 57.51797634 C203.03499259 57.53162724 200.32946862 57.51659 197.62304688 57.50170898 C195.68660591 57.50549055 193.75016764 57.51098925 191.81373596 57.51808167 C186.54723678 57.53207468 181.28106289 57.52083952 176.01458168 57.50437045 C170.5106542 57.49054864 165.00674617 57.49697675 159.50280762 57.50050354 C150.25881693 57.50320794 141.01495593 57.48971032 131.77099609 57.46655273 C121.07421904 57.43994159 110.37765885 57.43819506 99.68086004 57.4499411 C89.40310222 57.46070954 79.12542308 57.45453915 68.84767151 57.44038582 C64.46812588 57.4346179 60.08863768 57.43471502 55.70909119 57.43945122 C50.55447531 57.44421344 45.40009778 57.43415068 40.24552727 57.41249657 C38.35042563 57.40691821 36.45530114 57.40647296 34.56019783 57.41144943 C31.97968415 57.41737737 29.39990533 57.40494554 26.81945801 57.38768005 C25.68586011 57.39669512 25.68586011 57.39669512 24.52936125 57.40589231 C19.49253838 57.34431432 19.49253838 57.34431432 17.12798309 55.69134617 C6.92831885 40.39753269 0 18.40682724 0 0 Z " fill="#6C9C3C" transform="translate(17,127)"/>
<path d="M0 0 C1.70134605 -0.01380206 3.40265007 -0.03404262 5.10385132 -0.06018066 C9.69644833 -0.11120375 14.28372455 -0.06874071 18.87599802 -0.00571489 C23.69510099 0.04741478 28.5139258 0.0236368 33.33322144 0.01113892 C41.42223501 0.00216833 49.50915316 0.05346642 57.59765625 0.14160156 C66.93440857 0.24266266 76.26775302 0.25132726 85.60488331 0.20987451 C94.60908172 0.17177709 103.61205958 0.19610624 112.61614609 0.2497139 C116.43836125 0.27156945 120.2597068 0.27231741 124.08194351 0.25593185 C128.58635298 0.23966786 133.08710543 0.27843902 137.59079361 0.3588562 C139.23815039 0.37970023 140.88586437 0.3821367 142.53325653 0.3643074 C154.92595271 0.24760485 154.92595271 0.24760485 159.86463547 4.28143692 C162.16847354 7.04789943 164.08496432 9.78556937 165.92138672 12.87744141 C166.65329066 14.0053563 166.65329066 14.0053563 167.39998055 15.15605736 C168.56017422 16.96269409 169.59576381 18.79737839 170.60888672 20.68994141 C170.97916992 21.36951904 171.34945312 22.04909668 171.73095703 22.74926758 C183.84352034 45.34588058 188.41495302 68.45877704 187.92138672 93.87744141 C181.65138672 93.87744141 175.38138672 93.87744141 168.92138672 93.87744141 C168.96779297 92.40275391 169.01419922 90.92806641 169.06201172 89.40869141 C169.42353168 73.03266493 168.72761627 57.78860426 158.92138672 43.87744141 C154.83992812 39.8931604 150.92194557 37.59401081 145.17138672 37.50244141 C138.67561921 37.63637476 134.22047365 39.96153563 129.29638672 44.06494141 C126.46119622 46.22863942 124.44996253 46.64220302 120.92138672 46.87744141 C120.26138672 46.54744141 119.60138672 46.21744141 118.92138672 45.87744141 C119.91008602 43.21555867 120.88887611 40.92555711 122.48388672 38.56494141 C124.67694674 34.46487268 125.51897348 30.406073 124.44873047 25.87744141 C123.44673168 23.24924787 122.54165506 21.28162287 120.14697266 19.72119141 C108.74179494 15.39733289 92.87600633 17.81026608 80.86132812 17.89794922 C70.85567527 17.96436229 60.91729583 17.92370674 50.9315033 17.253479 C43.86416694 16.78275695 36.81513374 16.6572415 29.73388672 16.62744141 C27.87860352 16.59650391 27.87860352 16.59650391 25.98583984 16.56494141 C9.81366323 16.49723999 -4.70433931 19.69928997 -16.68408203 31.03759766 C-29.67431574 46.44363339 -32.07846143 67.39585487 -30.57861328 86.81494141 C-30.46517578 87.95833984 -30.35173828 89.10173828 -30.23486328 90.27978516 C-30.15751953 91.565625 -30.15751953 91.565625 -30.07861328 92.87744141 C-31.07861328 93.87744141 -31.07861328 93.87744141 -34.67626953 93.97509766 C-36.16458195 93.96842361 -37.6528776 93.95646324 -39.14111328 93.93994141 C-39.89972656 93.93542969 -40.65833984 93.93091797 -41.43994141 93.92626953 C-43.31953199 93.91444821 -45.19908227 93.89651218 -47.07861328 93.87744141 C-47.94837806 69.29655075 -44.18755735 47.2319137 -32.89111328 25.25244141 C-32.57762939 24.63280518 -32.26414551 24.01316895 -31.94116211 23.37475586 C-30.74091897 21.14857639 -29.40873264 19.02940492 -28.07861328 16.87744141 C-27.7533224 16.30094416 -27.42803153 15.72444691 -27.09288335 15.13048005 C-19.89216415 2.54914623 -14.22309588 -0.34415623 0 0 Z " fill="#0C6899" transform="translate(64.07861328125,30.12255859375)"/>
<path d="M0 0 C14 0 14 0 18.06103516 3.73754883 C19.18771317 5.44500071 20.26155354 7.18812747 21.2890625 8.95703125 C21.88447845 9.88859543 22.47989441 10.82015961 23.09335327 11.779953 C24.98530754 14.76364383 26.80482893 17.78460383 28.625 20.8125 C29.85219286 22.77435546 31.08393134 24.73337521 32.3203125 26.68945312 C34.7541411 30.55687964 37.15809249 34.44031369 39.53613281 38.34228516 C43.28562499 44.49060644 47.13988602 50.57001665 51.02554321 56.63301086 C54.21918378 61.65062608 57.16479625 66.77173412 60 72 C59.9285376 71.2587085 59.8570752 70.51741699 59.78344727 69.75366211 C58.63359986 55.71146445 58.89141544 41.64089799 58.9375 27.5625 C58.94309992 24.88476647 58.94708572 22.2070335 58.95117188 19.52929688 C58.96210344 13.01951111 58.9787664 6.50975989 59 0 C60.97909398 -0.02686553 62.95828971 -0.04633375 64.9375 -0.0625 C66.03964844 -0.07410156 67.14179687 -0.08570312 68.27734375 -0.09765625 C71 0 71 0 72 1 C72.10051875 3.79452271 72.13615894 6.56436355 72.12939453 9.359375 C72.13202301 10.67391663 72.13202301 10.67391663 72.13470459 12.01501465 C72.13912432 14.92669627 72.13618469 17.8383177 72.1328125 20.75 C72.1334855 22.76399752 72.1344555 24.77799495 72.13571167 26.79199219 C72.13718881 31.01888805 72.13503358 35.24576283 72.13037109 39.47265625 C72.1246738 44.90380532 72.12795272 50.33490499 72.13394356 55.76605225 C72.13754874 59.92659887 72.13641078 64.08713369 72.13381577 68.24768066 C72.13314638 70.25085455 72.13397533 72.25402949 72.13629532 74.25720215 C72.13882115 77.05170552 72.13498224 79.84612771 72.12939453 82.640625 C72.13141876 83.47702515 72.13344299 84.31342529 72.13552856 85.1751709 C72.11426242 90.88573758 72.11426242 90.88573758 71 92 C66.82839439 92.82764655 63.16320262 92.90890496 59 92 C55.93224021 89.52507184 54.1632666 86.43162411 52.20214844 83.04248047 C50.25000123 79.72573321 48.14415687 76.50815953 46.06469727 73.27026367 C44.22893699 70.4046204 42.41247684 67.52737755 40.59765625 64.6484375 C37.37681731 59.56235769 34.05478293 54.5523992 30.6875 49.5625 C23.99961922 39.62766853 17.94137334 29.39740335 12 19 C12 43.09 12 67.18 12 92 C8.04 92 4.08 92 0 92 C0 61.64 0 31.28 0 0 Z " fill="#0E699B" transform="translate(512,31)"/>
<path d="M0 0 C10.28455434 7.63550246 15.34635669 19.33228749 17.3203125 31.72265625 C18.73425062 46.34484562 15.7796693 61.19875729 6.3203125 72.72265625 C-1.36807579 81.32773699 -11.48755426 86.13336365 -22.9921875 86.9609375 C-35.21880224 87.20702403 -46.47919601 85.47291092 -55.6796875 76.72265625 C-56.36804688 76.07425781 -57.05640625 75.42585938 -57.765625 74.7578125 C-66.66318515 65.61217911 -70.4999476 53.56579376 -70.9921875 40.97265625 C-70.63578451 27.59706151 -66.44108086 13.26219976 -56.6796875 3.72265625 C-40.17559324 -10.09685336 -18.13181077 -11.5668448 0 0 Z M-49.40625 13.84375 C-56.82058587 24.9652538 -58.0654729 38.33721653 -55.5546875 51.16015625 C-53.33265302 60.00695401 -49.5812947 67.34559154 -41.88671875 72.5390625 C-35.24270222 76.10213685 -27.90802167 77.99292054 -20.4609375 76.18359375 C-11.26198719 73.39324549 -5.03955465 68.35047239 -0.4921875 59.91015625 C5.09300422 47.88051255 4.92539999 34.00107021 0.578125 21.59765625 C-3.15444244 13.06607352 -9.44635209 6.81599041 -18.1171875 3.34765625 C-30.27428765 1.21483166 -41.38071679 3.98432797 -49.40625 13.84375 Z " fill="#0F699A" transform="translate(387.6796875,37.27734375)"/>
<path d="M0 0 C4.29 0 8.58 0 13 0 C13 12.54 13 25.08 13 38 C27.85 38 42.7 38 58 38 C58 25.46 58 12.92 58 0 C62.29 0 66.58 0 71 0 C71 30.36 71 60.72 71 92 C66.71 92 62.42 92 58 92 C58 77.81 58 63.62 58 49 C43.15 49 28.3 49 13 49 C13 63.19 13 77.38 13 92 C8.71 92 4.42 92 0 92 C0 61.64 0 31.28 0 0 Z " fill="#116A9B" transform="translate(420,31)"/>
<path d="M0 0 C1.093125 0.00257812 2.18625 0.00515625 3.3125 0.0078125 C4.405625 0.00523438 5.49875 0.00265625 6.625 0 C9.3125 0.1328125 9.3125 0.1328125 10.3125 1.1328125 C10.41152268 2.91028272 10.44049182 4.69169803 10.44189453 6.47192383 C10.44504669 7.61434036 10.44819885 8.7567569 10.45144653 9.93379211 C10.4494223 11.18153915 10.44739807 12.42928619 10.4453125 13.71484375 C10.44626923 14.99453537 10.44722595 16.27422699 10.44821167 17.59269714 C10.44969027 20.31400753 10.44753279 23.03528521 10.44287109 25.7565918 C10.43723608 29.21145972 10.44041159 32.66624889 10.44644356 36.12111378 C10.45097917 39.44402963 10.44777652 42.76692567 10.4453125 46.08984375 C10.44733673 47.31532425 10.44936096 48.54080475 10.45144653 49.80342102 C10.38232193 75.61616125 10.38232193 75.61616125 3.0625 85.5078125 C-3.42981179 91.7050192 -10.28434237 93.27650932 -19.0625 93.3203125 C-20.34898437 93.33449219 -21.63546875 93.34867187 -22.9609375 93.36328125 C-26.57202711 93.13995391 -29.33511667 92.44574282 -32.6875 91.1328125 C-32.3575 87.8328125 -32.0275 84.5328125 -31.6875 81.1328125 C-30.44613281 81.16761719 -29.20476562 81.20242187 -27.92578125 81.23828125 C-26.28386774 81.26642834 -24.64193954 81.29372751 -23 81.3203125 C-22.18337891 81.34544922 -21.36675781 81.37058594 -20.52539062 81.39648438 C-15.71925298 81.45485852 -12.60352915 81.24149074 -8.6875 78.1328125 C-4.57267465 73.57711301 -4.55974453 69.33864689 -4.49804688 63.3605957 C-4.48975357 62.68862152 -4.48146027 62.01664734 -4.47291565 61.3243103 C-4.45556307 59.87020997 -4.44038332 58.41608242 -4.42713928 56.96193886 C-4.40606607 54.66353275 -4.37905067 52.36526447 -4.35046387 50.06694031 C-4.28072855 44.36273071 -4.22111423 38.65842374 -4.16143799 32.95410156 C-4.11058601 28.12683779 -4.05580867 23.29965081 -3.99562073 18.47249413 C-3.96897668 16.20290251 -3.94821015 13.93330391 -3.9276123 11.66365051 C-3.91101818 10.2813787 -3.89414713 8.89911018 -3.87695312 7.5168457 C-3.86442505 6.30535355 -3.85189697 5.09386139 -3.83898926 3.84565735 C-3.63629499 0.2158416 -3.62906502 0.17934333 0 0 Z " fill="#19709F" transform="translate(293.6875,30.8671875)"/>
<path d="M0 0 C4.96338882 6.04238639 4.43320389 12.44411812 4 20 C3 23.75 3 23.75 2 26 C10.91570231 22.63184579 18.90402362 17.3288438 26 11 C31.97460758 13.54211165 34.86326026 18.91597714 37.875 24.4375 C40.02996957 31.2615703 39.73979802 36.0440988 36.5625 42.5 C34.27272727 46.72727273 34.27272727 46.72727273 33 48 C31.18944975 48.09376053 29.37522799 48.1174411 27.56225586 48.11352539 C25.82056374 48.11341209 25.82056374 48.11341209 24.04368591 48.11329651 C22.14840904 48.10555458 22.14840904 48.10555458 20.21484375 48.09765625 C18.92888809 48.0962413 17.64293243 48.09482635 16.31800842 48.09336853 C12.89356557 48.08954418 9.46916491 48.07971462 6.04473877 48.06866455 C2.55261811 48.05844864 -0.93950934 48.05387053 -4.43164062 48.04882812 C-11.28777778 48.03809227 -18.14388687 48.02101684 -25 48 C-25 47.34 -25 46.68 -25 46 C-23.27734375 44.73828125 -23.27734375 44.73828125 -20.9375 43.3125 C-10.73172139 36.67394495 -3.69297685 27.60341511 -0.45703125 15.73828125 C0.41467127 10.51551657 0.2231974 5.27407196 0 0 Z " fill="#066698" transform="translate(144,76)"/>
<path d="M0 0 C4.41965888 0.33659654 6.57064018 0.61696546 10.109375 3.4921875 C13.9369867 8.39631499 13.63387509 12.98796983 13.109375 19.0546875 C11.609375 22.2421875 11.609375 22.2421875 10.109375 24.0546875 C10.55925781 24.71082031 11.00914062 25.36695313 11.47265625 26.04296875 C13.45860031 29.69729541 14.36013319 33.21456223 15.296875 37.2421875 C15.47412109 37.96599609 15.65136719 38.68980469 15.83398438 39.43554688 C17.109375 44.72915661 17.109375 44.72915661 17.109375 47.0546875 C14.799375 47.0546875 12.489375 47.0546875 10.109375 47.0546875 C9.84382813 45.86230469 9.57828125 44.66992188 9.3046875 43.44140625 C8.94824283 41.87492575 8.59145403 40.30852352 8.234375 38.7421875 C8.06035156 37.95650391 7.88632812 37.17082031 7.70703125 36.36132812 C7.53300781 35.60400391 7.35898437 34.84667969 7.1796875 34.06640625 C6.94403076 33.02166138 6.94403076 33.02166138 6.70361328 31.95581055 C6.11424107 29.75734538 6.11424107 29.75734538 4.109375 27.0546875 C3.779375 33.6546875 3.449375 40.2546875 3.109375 47.0546875 C1.129375 47.0546875 -0.850625 47.0546875 -2.890625 47.0546875 C-2.91589502 40.52189964 -2.93345792 33.98912429 -2.94555664 27.45629883 C-2.95059817 25.23201018 -2.95743123 23.00772487 -2.96606445 20.78344727 C-2.97813798 17.59390441 -2.98385496 14.40440521 -2.98828125 11.21484375 C-2.99344254 10.21381119 -2.99860382 9.21277863 -3.00392151 8.18141174 C-3.00399704 7.26053268 -3.00407257 6.33965363 -3.00415039 5.39086914 C-3.006371 4.57590469 -3.00859161 3.76094025 -3.01087952 2.92127991 C-2.84621967 0.36542727 -2.56568728 0.07421409 0 0 Z " fill="#75A047" transform="translate(354.890625,132.9453125)"/>
<path d="M0 0 C1.65 0.33 3.3 0.66 5 1 C5 7.6 5 14.2 5 21 C8.465 20.505 8.465 20.505 12 20 C11.98839844 18.72382813 11.97679687 17.44765625 11.96484375 16.1328125 C11.95546583 14.46354313 11.94636563 12.79427217 11.9375 11.125 C11.92912109 10.28324219 11.92074219 9.44148437 11.91210938 8.57421875 C11.90888672 7.76855469 11.90566406 6.96289062 11.90234375 6.1328125 C11.89710693 5.38918457 11.89187012 4.64555664 11.88647461 3.87939453 C12 2 12 2 13 0 C14.66611905 -0.042721 16.33382885 -0.04063832 18 0 C19 1 19 1 19.12025452 2.86659241 C19.1169236 4.08903908 19.1169236 4.08903908 19.11352539 5.33618164 C19.11344986 6.2570607 19.11337433 7.17793976 19.11329651 8.12672424 C19.10813522 9.12775681 19.10297394 10.12878937 19.09765625 11.16015625 C19.0962413 12.17975937 19.09482635 13.19936249 19.09336853 14.24986267 C19.08775097 17.52077107 19.0751955 20.79161213 19.0625 24.0625 C19.05748726 26.27408756 19.05292396 28.48567618 19.04882812 30.69726562 C19.03777584 36.13153357 19.02102063 41.56576197 19 47 C17.02 47 15.04 47 13 47 C11.82170801 44.64341603 11.95585628 43.47426764 12.12109375 40.8671875 C12.16943359 40.06152344 12.21777344 39.25585938 12.26757812 38.42578125 C12.32365234 37.58402344 12.37972656 36.74226563 12.4375 35.875 C12.48970703 35.02550781 12.54191406 34.17601562 12.59570312 33.30078125 C12.72551378 31.20020876 12.8621174 29.10005809 13 27 C10.36 27 7.72 27 5 27 C5 33.6 5 40.2 5 47 C3.02 47 1.04 47 -1 47 C-1.02527002 40.46721214 -1.04283292 33.93443679 -1.05493164 27.40161133 C-1.05997317 25.17732268 -1.06680623 22.95303737 -1.07543945 20.72875977 C-1.08751298 17.53921691 -1.09322996 14.34971771 -1.09765625 11.16015625 C-1.10281754 10.15912369 -1.10797882 9.15809113 -1.11329651 8.12672424 C-1.11337204 7.20584518 -1.11344757 6.28496613 -1.11352539 5.33618164 C-1.115746 4.52121719 -1.11796661 3.70625275 -1.12025452 2.86659241 C-1 1 -1 1 0 0 Z " fill="#79A24A" transform="translate(424,133)"/>
<path d="M0 0 C3.80333372 0.71312507 5.33723037 1.75579687 8 4.5625 C12.83347378 14.0568235 13.57815097 25.54667859 11.24609375 35.9140625 C9.57906039 40.76480272 7.99974934 44.21054434 4 47.5625 C0.5625 48.125 0.5625 48.125 -3 47.5625 C-7.62225462 44.20086027 -9.57224514 39.97437079 -11 34.5625 C-11.40518897 31.05086227 -11.42060153 27.59408552 -11.375 24.0625 C-11.38660156 23.16402344 -11.39820313 22.26554687 -11.41015625 21.33984375 C-11.37846354 14.08221368 -10.22234975 8.44554833 -5.6875 2.5625 C-3 0.5625 -3 0.5625 0 0 Z M-1 6.5625 C-5.53837203 11.89015412 -5.20585359 17.69233705 -5.25 24.375 C-5.270625 25.14392578 -5.29125 25.91285156 -5.3125 26.70507812 C-5.3503608 32.31320853 -4.23011412 36.41563136 -2 41.5625 C0.45224694 41.45636164 0.45224694 41.45636164 3 40.5625 C4.81063597 37.0645054 5.25589758 34.12361263 5.265625 30.21875 C5.26820313 29.21972656 5.27078125 28.22070312 5.2734375 27.19140625 C5.26570313 26.15886719 5.25796875 25.12632812 5.25 24.0625 C5.25773437 23.02996094 5.26546875 21.99742187 5.2734375 20.93359375 C5.27085937 19.93457031 5.26828125 18.93554688 5.265625 17.90625 C5.26336914 17.00068359 5.26111328 16.09511719 5.25878906 15.16210938 C4.97224623 12.28370549 4.29918812 10.14268988 3 7.5625 C0.95894361 6.67556697 0.95894361 6.67556697 -1 6.5625 Z " fill="#699A3A" transform="translate(385,132.4375)"/>
<path d="M0 0 C5.40708882 5.04661623 6.99419866 10.46772121 7.3359375 17.7421875 C7.35958944 19.45301106 7.37241933 21.1640149 7.375 22.875 C7.39949219 23.72191406 7.42398437 24.56882813 7.44921875 25.44140625 C7.48290829 32.77449572 5.61019197 38.73726004 1 44.5 C-1.19488044 46.14616033 -2.2511015 46.91915004 -5 47 C-8.2138034 45.99568644 -10.30383446 45.01679698 -12.23828125 42.19140625 C-17.16181582 32.72031612 -17.45789526 20.93292581 -15.28125 10.58203125 C-13.91521353 6.50044646 -12.4646388 3.55254344 -9.6875 0.25 C-5.9078957 -1.50795549 -3.95328989 -1.27070032 0 0 Z M-6 5 C-11.64091689 15.30080476 -10.82011041 26.84141497 -8 38 C-7.34 38.66 -6.68 39.32 -6 40 C-3.93442812 39.96304299 -3.93442812 39.96304299 -2 39 C2.65973901 31.9930044 1.80335103 21.3394442 0.61328125 13.4296875 C-0.14542758 10.139926 -1.11667977 7.82498035 -3 5 C-3.99 5 -4.98 5 -6 5 Z " fill="#709E42" transform="translate(464,134)"/>
<path d="M0 0 C1.98 0 3.96 0 6 0 C7.40724499 5.40897939 8.57195043 10.78832868 9.5078125 16.296875 C9.63815887 17.0529303 9.76850525 17.8089856 9.90280151 18.58795166 C10.17482717 20.17084353 10.44532889 21.753998 10.71435547 23.33740234 C11.12641806 25.75833131 11.54533362 28.178008 11.96484375 30.59765625 C12.22957726 32.14315889 12.49391424 33.68872952 12.7578125 35.234375 C12.94526535 36.31413605 12.94526535 36.31413605 13.13650513 37.41571045 C13.68745575 40.68548794 14 43.66964263 14 47 C12.02 47 10.04 47 8 47 C7.67 43.7 7.34 40.4 7 37 C4.36 37 1.72 37 -1 37 C-1.33 40.3 -1.66 43.6 -2 47 C-3.98 47 -5.96 47 -8 47 C-7.30441961 38.37480314 -5.89376783 29.91994134 -4.41601562 21.40185547 C-3.99625475 18.97837691 -3.58374013 16.55373781 -3.171875 14.12890625 C-2.90667711 12.58586403 -2.64106737 11.04289253 -2.375 9.5 C-2.25205566 8.77611084 -2.12911133 8.05222168 -2.00244141 7.30639648 C-1.11510224 2.23020447 -1.11510224 2.23020447 0 0 Z " fill="#7BA54E" transform="translate(297,133)"/>
<path d="M0 0 C8.79165342 0.54577066 8.79165342 0.54577066 12.26953125 3.0546875 C15.40876628 6.91836139 16.44421934 10.112128 16.70703125 15.0546875 C16.08448327 19.27417933 15.43139688 21.3102006 12.45703125 24.3671875 C9.5965856 26.12246097 6.89464745 27.04644978 3.70703125 28.0546875 C3.71863281 29.34246094 3.73023438 30.63023437 3.7421875 31.95703125 C3.75156395 33.63541522 3.7606643 35.31380076 3.76953125 36.9921875 C3.77791016 37.84232422 3.78628906 38.69246094 3.79492188 39.56835938 C3.79814453 40.37724609 3.80136719 41.18613281 3.8046875 42.01953125 C3.80992432 42.768396 3.81516113 43.51726074 3.82055664 44.28881836 C3.70703125 46.0546875 3.70703125 46.0546875 2.70703125 47.0546875 C0.70744761 47.09549533 -1.29342129 47.09723106 -3.29296875 47.0546875 C-3.31823877 40.52189964 -3.33580167 33.98912429 -3.34790039 27.45629883 C-3.35294192 25.23201018 -3.35977498 23.00772487 -3.3684082 20.78344727 C-3.38048173 17.59390441 -3.38619871 14.40440521 -3.390625 11.21484375 C-3.39578629 10.21381119 -3.40094757 9.21277863 -3.40626526 8.18141174 C-3.40634079 7.26053268 -3.40641632 6.33965363 -3.40649414 5.39086914 C-3.40871475 4.57590469 -3.41093536 3.76094025 -3.41322327 2.92127991 C-3.2322314 0.11192142 -2.81503083 0.06713873 0 0 Z " fill="#7DA653" transform="translate(497.29296875,132.9453125)"/>
<path d="M0 0 C1.98 0 3.96 0 6 0 C7.63310485 4.53263628 8.67914645 9.04341552 9.5078125 13.77734375 C9.63815887 14.50691788 9.76850525 15.236492 9.90280151 15.98817444 C10.17560881 17.52320533 10.44608945 19.05865137 10.71435547 20.59448242 C11.12340122 22.9283778 11.54366251 25.2600648 11.96484375 27.59179688 C12.22984883 29.09102541 12.49419367 30.59037084 12.7578125 32.08984375 C12.88278107 32.77860092 13.00774963 33.46735809 13.13650513 34.17698669 C13.87965781 38.4972736 14.11312682 42.62042664 14 47 C12.35 47 10.7 47 9 47 C7 40.375 7 40.375 7 37 C4.69 37 2.38 37 0 37 C-0.66 40.3 -1.32 43.6 -2 47 C-3.98 47 -5.96 47 -8 47 C-7.18456978 41.91334166 -6.36659885 36.8271004 -5.54638672 31.74121094 C-5.26836354 30.01508326 -4.99100542 28.28884831 -4.71435547 26.5625 C-3.28972712 17.67528778 -1.86294482 8.80829248 0 0 Z " fill="#649631" transform="translate(553,133)"/>
<path d="M0 0 C2.9375 1.0625 2.9375 1.0625 5 3 C5.3125 6.6875 5.3125 6.6875 5 10 C4.29875 9.505 3.5975 9.01 2.875 8.5 C-0.37119719 6.8063319 -2.39340156 6.74837685 -6 7 C-10.86785506 15.65979607 -10.75882086 25.44759343 -8.765625 35.01171875 C-7.86298287 37.3558251 -6.98409983 38.46556766 -5 40 C-3.68 40.33 -2.36 40.66 -1 41 C-1 36.71 -1 32.42 -1 28 C-2.32 28 -3.64 28 -5 28 C-5 26.02 -5 24.04 -5 22 C-1.7 22 1.6 22 5 22 C5 29.59 5 37.18 5 45 C-2 48 -2 48 -5.625 47.5625 C-10.49730844 45.30680165 -12.82530629 42.60885791 -14.97265625 37.83984375 C-18.43636188 27.93203463 -18.40581589 16.60953545 -14 7 C-10.11524483 1.0140565 -7.14049118 -0.4841011 0 0 Z " fill="#62942E" transform="translate(281,133)"/>
<path d="M0 0 C1 1 1 1 1.0625 4.0625 C1.041875 5.031875 1.02125 6.00125 1 7 C-0.98 7 -2.96 7 -5 7 C-6.23654352 10.49423266 -5.7818879 12.27108116 -4.3125 15.625 C-3.94125 16.50027344 -3.57 17.37554687 -3.1875 18.27734375 C-2.795625 19.17582031 -2.40375 20.07429688 -2 21 C4.204952 35.4997663 4.204952 35.4997663 1.75 41.8125 C0 45 0 45 -3 47 C-5.72283905 47.31254378 -8.24442486 47.13333428 -11 47 C-12 46 -12 46 -12.0625 42.4375 C-12.041875 41.303125 -12.02125 40.16875 -12 39 C-9.69 39.33 -7.38 39.66 -5 40 C-4.57685226 34.08362517 -5.84128556 30.33113869 -8.4375 25.0625 C-11.31185672 19.19425886 -13.90002648 13.4535793 -12.546875 6.7578125 C-9.46149456 0.43580749 -6.8599857 -0.38111032 0 0 Z " fill="#7AA44F" transform="translate(487,133)"/>
<path d="M0 0 C2 3 2 3 1.625 5.1875 C1.41875 5.785625 1.2125 6.38375 1 7 C-0.98 7 -2.96 7 -5 7 C-5.38009131 13.24731905 -4.50287684 17.03354599 -1.5625 22.5 C1.45656439 28.17942805 3.88110931 33.64002806 2.546875 40.2421875 C0.96475518 43.48398204 0.06383847 44.95744102 -3 47 C-9.33333333 47.33333333 -9.33333333 47.33333333 -12 46 C-12 43.69 -12 41.38 -12 39 C-9.69 39.33 -7.38 39.66 -5 40 C-3.76345648 36.50576734 -4.2181121 34.72891884 -5.6875 31.375 C-6.05875 30.50101563 -6.43 29.62703125 -6.8125 28.7265625 C-7.204375 27.82679688 -7.59625 26.92703125 -8 26 C-14.02363611 11.73569505 -14.02363611 11.73569505 -10.984375 3.734375 C-8.43052083 -0.76527282 -4.61043988 -0.4191309 0 0 Z " fill="#74A047" transform="translate(325,133)"/>
<path d="M0 0 C0.74886475 0.00523682 1.49772949 0.01047363 2.26928711 0.01586914 C3.07817383 0.0190918 3.88706055 0.02231445 4.72045898 0.02563477 C5.5705957 0.03401367 6.42073242 0.04239258 7.29663086 0.05102539 C8.15063477 0.05553711 9.00463867 0.06004883 9.88452148 0.06469727 C12.00108749 0.07652166 14.11761771 0.0944577 16.23413086 0.11352539 C16.23413086 2.42352539 16.23413086 4.73352539 16.23413086 7.11352539 C14.25413086 7.11352539 12.27413086 7.11352539 10.23413086 7.11352539 C10.23413086 20.31352539 10.23413086 33.51352539 10.23413086 47.11352539 C8.25413086 47.11352539 6.27413086 47.11352539 4.23413086 47.11352539 C4.23413086 33.91352539 4.23413086 20.71352539 4.23413086 7.11352539 C1.92413086 7.11352539 -0.38586914 7.11352539 -2.76586914 7.11352539 C-2.8084127 5.11397793 -2.80667697 3.11310903 -2.76586914 1.11352539 C-1.76586914 0.11352539 -1.76586914 0.11352539 0 0 Z " fill="#7FA752" transform="translate(331.765869140625,132.886474609375)"/>
<path d="M0 0 C1.58206057 0.00667536 3.16410534 0.0186375 4.74609375 0.03515625 C5.55240234 0.03966797 6.35871094 0.04417969 7.18945312 0.04882812 C9.18753131 0.06065107 11.18557158 0.07858711 13.18359375 0.09765625 C13.84359375 2.07765625 14.50359375 4.05765625 15.18359375 6.09765625 C14.85359375 6.42765625 14.52359375 6.75765625 14.18359375 7.09765625 C12.20359375 7.09765625 10.22359375 7.09765625 8.18359375 7.09765625 C8.18359375 20.29765625 8.18359375 33.49765625 8.18359375 47.09765625 C6.20359375 47.09765625 4.22359375 47.09765625 2.18359375 47.09765625 C2.18359375 33.89765625 2.18359375 20.69765625 2.18359375 7.09765625 C-0.12640625 7.09765625 -2.43640625 7.09765625 -4.81640625 7.09765625 C-4.85894981 5.09810879 -4.85721408 3.09723989 -4.81640625 1.09765625 C-3.81640625 0.09765625 -3.81640625 0.09765625 0 0 Z " fill="#719E41" transform="translate(531.81640625,132.90234375)"/>
<path d="M0 0 C1.65 0.33 3.3 0.66 5 1 C5 14.2 5 27.4 5 41 C8.3 41 11.6 41 15 41 C15.38218767 42.65614657 15.71395102 44.32457024 16 46 C15 47 15 47 11.40234375 47.09765625 C9.91403133 47.0909822 8.42573568 47.07902183 6.9375 47.0625 C5.79958008 47.05573242 5.79958008 47.05573242 4.63867188 47.04882812 C2.75908129 47.0370068 0.87953101 47.01907078 -1 47 C-1.02527002 40.46721214 -1.04283292 33.93443679 -1.05493164 27.40161133 C-1.05997317 25.17732268 -1.06680623 22.95303737 -1.07543945 20.72875977 C-1.08751298 17.53921691 -1.09322996 14.34971771 -1.09765625 11.16015625 C-1.10281754 10.15912369 -1.10797882 9.15809113 -1.11329651 8.12672424 C-1.11337204 7.20584518 -1.11344757 6.28496613 -1.11352539 5.33618164 C-1.115746 4.52121719 -1.11796661 3.70625275 -1.12025452 2.86659241 C-1 1 -1 1 0 0 Z " fill="#6A9A3B" transform="translate(572,133)"/>
<path d="M0 0 C1.22111481 0.00007553 2.44222961 0.00015106 3.7003479 0.00022888 C5.03769979 0.00533587 6.37505127 0.01055187 7.71240234 0.01586914 C9.07717843 0.01773399 10.44195518 0.01915758 11.80673218 0.02015686 C15.40049077 0.02397676 18.99420902 0.03380256 22.58795166 0.04486084 C26.25442967 0.05508628 29.92091419 0.05965691 33.58740234 0.06469727 C40.78273325 0.07542529 47.97803089 0.0924954 55.17333984 0.11352539 C50.83201677 4.69891319 47.40089222 5.98705803 41.18261719 6.23071289 C37.57336617 6.23899693 33.96939066 6.18408559 30.36083984 6.11352539 C19.13043376 5.98951815 8.27692565 6.44873073 -2.82666016 8.11352539 C-3.15666016 7.45352539 -3.48666016 6.79352539 -3.82666016 6.11352539 C-5.71430919 5.42879874 -5.71430919 5.42879874 -7.88916016 4.98852539 C-8.62263672 4.82094727 -9.35611328 4.65336914 -10.11181641 4.48071289 C-10.67771484 4.35954102 -11.24361328 4.23836914 -11.82666016 4.11352539 C-7.54506081 0.83096589 -5.43679505 -0.01118682 0 0 Z " fill="#77A04A" transform="translate(117.82666015625,126.886474609375)"/>
<path d="M0 0 C0.33 0 0.66 0 1 0 C1 1.65 1 3.3 1 5 C1.66 5 2.32 5 3 5 C3.33 5.66 3.66 6.32 4 7 C4.33 4.69 4.66 2.38 5 0 C5.66 0 6.32 0 7 0 C7.06058594 0.69867188 7.12117188 1.39734375 7.18359375 2.1171875 C7.26738281 3.02726563 7.35117187 3.93734375 7.4375 4.875 C7.51871094 5.77992188 7.59992188 6.68484375 7.68359375 7.6171875 C7.86989285 10.01110861 7.86989285 10.01110861 9 12 C9.04022391 14.3329866 9.04320247 16.66706666 9 19 C9.99 18.67 10.98 18.34 12 18 C11.67 20.97 11.34 23.94 11 27 C10.67 26.01 10.34 25.02 10 24 C7.36 24 4.72 24 2 24 C1.67 27.3 1.34 30.6 1 34 C-0.98 34 -2.96 34 -5 34 C-4.36132025 26.38489015 -3.23194139 18.90380045 -1.9375 11.375 C-1.75123047 10.27542969 -1.56496094 9.17585937 -1.37304688 8.04296875 C-0.91835544 5.36145514 -0.46062096 2.68050027 0 0 Z " fill="#74A048" transform="translate(294,146)"/>
<path d="M0 0 C1.65 0 3.3 0 5 0 C6 1 6 1 6.12025452 2.86659241 C6.11803391 3.68155685 6.11581329 4.4965213 6.11352539 5.33618164 C6.11344986 6.2570607 6.11337433 7.17793976 6.11329651 8.12672424 C6.10813522 9.12775681 6.10297394 10.12878937 6.09765625 11.16015625 C6.0962413 12.17975937 6.09482635 13.19936249 6.09336853 14.24986267 C6.08775097 17.52077107 6.0751955 20.79161213 6.0625 24.0625 C6.05748726 26.27408756 6.05292396 28.48567618 6.04882812 30.69726562 C6.03777584 36.13153357 6.02102063 41.56576197 6 47 C4.02 47 2.04 47 0 47 C0 31.49 0 15.98 0 0 Z " fill="#729F42" transform="translate(518,133)"/>
<path d="M0 0 C2.4375 1.5625 2.4375 1.5625 4 4 C4.51578624 6.90715878 4.33522824 8.98294581 4 12 C2.5 14 2.5 14 1 15 C0.525625 13.88625 0.05125 12.7725 -0.4375 11.625 C-1.25306463 9.73289006 -2.07856355 7.84287291 -3 6 C-3.99 6 -4.98 6 -6 6 C-7.61064629 9.65079826 -8.44894091 13.0507432 -9 17 C-9.66 17 -10.32 17 -11 17 C-10.67 22.61 -10.34 28.22 -10 34 C-10.99 34.495 -10.99 34.495 -12 35 C-12 33.68 -12 32.36 -12 31 C-13.32 31 -14.64 31 -16 31 C-16.93407754 8.86755167 -16.93407754 8.86755167 -9.6875 0.25 C-5.98046059 -1.47420438 -3.89225917 -1.13229358 0 0 Z " fill="#6E9C3F" transform="translate(464,134)"/>
<path d="M0 0 C4.46365922 6.69548883 3.73714129 16.18438767 3 24 C1.63041701 30.08861246 -0.12908434 34.91797087 -5 39 C-9.38637585 39.71777059 -11.23891136 39.54599837 -14.875 36.9375 C-17.39465123 33.45445271 -17.92225715 31.27585689 -18 27 C-17.68417969 26.42894531 -17.36835938 25.85789063 -17.04296875 25.26953125 C-15.55196658 22.02506584 -15.53435109 18.76236358 -15.375 15.25 C-15.33632813 14.55261719 -15.29765625 13.85523438 -15.2578125 13.13671875 C-15.16401376 11.42489182 -15.08093826 9.71248318 -15 8 C-14.67 8 -14.34 8 -14 8 C-13.95101563 9.134375 -13.90203125 10.26875 -13.8515625 11.4375 C-13.7764586 12.95835398 -13.70091416 14.47918625 -13.625 16 C-13.5940625 16.74378906 -13.563125 17.48757812 -13.53125 18.25390625 C-13.26246207 23.40567483 -12.38936116 28.02992756 -11 33 C-9.04105639 32.88693303 -9.04105639 32.88693303 -7 32 C-5.18268758 28.66729404 -4.72419198 25.67388205 -4.5859375 21.91796875 C-4.54726563 20.98662109 -4.50859375 20.05527344 -4.46875 19.09570312 C-4.4378125 18.13599609 -4.406875 17.17628906 -4.375 16.1875 C-4.33632813 15.20845703 -4.29765625 14.22941406 -4.2578125 13.22070312 C-4.16389184 10.81398626 -4.07821799 8.40726988 -4 6 C-3.67 6 -3.34 6 -3 6 C-2.67 11.94 -2.34 17.88 -2 24 C-1.34 23.01 -0.68 22.02 0 21 C0.66 21.33 1.32 21.66 2 22 C1.67 18.04 1.34 14.08 1 10 C0.67 12.97 0.34 15.94 0 19 C-0.33 19 -0.66 19 -1 19 C-1.22304441 17.25181409 -1.4278645 15.50129677 -1.625 13.75 C-1.79902344 12.28820312 -1.79902344 12.28820312 -1.9765625 10.796875 C-2.0017355 7.79289648 -1.39769318 6.58199808 0 4 C0 2.68 0 1.36 0 0 Z " fill="#6F9C3F" transform="translate(394,141)"/>
<path d="M0 0 C2.9375 1.0625 2.9375 1.0625 5 3 C5.3125 6.6875 5.3125 6.6875 5 10 C4.29875 9.505 3.5975 9.01 2.875 8.5 C-0.37119719 6.8063319 -2.39340156 6.74837685 -6 7 C-9.25199555 12.36356526 -9.71279602 17.26917447 -10.1875 23.375 C-10.26935547 24.30183594 -10.35121094 25.22867188 -10.43554688 26.18359375 C-10.63459016 28.45502887 -10.82241649 30.72680356 -11 33 C-11.66 31.68 -12.32 30.36 -13 29 C-13.66 29.33 -14.32 29.66 -15 30 C-17.68586781 24.62826438 -16.81333844 15.05001916 -15.28125 9.3046875 C-11.9448085 2.22820271 -7.83761903 -0.97970238 0 0 Z " fill="#80A559" transform="translate(281,133)"/>
<path d="M0 0 C1.98 0 3.96 0 6 0 C8.38915031 6.31418295 11.20018532 14.35263158 9 21 C9 20.01 9 19.02 9 18 C8.34 18 7.68 18 7 18 C7 16.68 7 15.36 7 14 C6.34 14 5.68 14 5 14 C5.33 19.61 5.66 25.22 6 31 C4.35 31 2.7 31 1 31 C1.01740234 29.06833984 1.01740234 29.06833984 1.03515625 27.09765625 C1.0445327 25.41927228 1.05363305 23.74088674 1.0625 22.0625 C1.07087891 21.21236328 1.07925781 20.36222656 1.08789062 19.48632812 C1.09111328 18.67744141 1.09433594 17.86855469 1.09765625 17.03515625 C1.10551147 15.91185913 1.10551147 15.91185913 1.11352539 14.76586914 C1.19341752 12.97332261 1.19341752 12.97332261 0 12 C0 15.63 0 19.26 0 23 C-0.99 23 -1.98 23 -3 23 C-3.33 23.99 -3.66 24.98 -4 26 C-2.98074847 17.26046032 -1.94183957 8.59367299 0 0 Z " fill="#6B9B3B" transform="translate(553,133)"/>
<path d="M0 0 C1.25064087 1.60746765 1.25064087 1.60746765 1.25064087 3.60746765 C-17.88935913 3.60746765 -37.02935913 3.60746765 -56.74935913 3.60746765 C-56.74935913 2.94746765 -56.74935913 2.28746765 -56.74935913 1.60746765 C-46.18924849 -0.46520464 -35.72063088 -0.88865491 -24.98910522 -1.13545227 C-22.09462417 -1.20575456 -19.20165588 -1.30160991 -16.30795288 -1.39839172 C-14.46294016 -1.44616082 -12.61788813 -1.49244049 -10.77279663 -1.5370636 C-9.91036346 -1.56814713 -9.0479303 -1.59923065 -8.15936279 -1.6312561 C-2.17898784 -1.73452723 -2.17898784 -1.73452723 0 0 Z " fill="#28749D" transform="translate(175.74935913085938,120.39253234863281)"/>
<path d="M0 0 C0.33 0 0.66 0 1 0 C1.02312215 11.71726788 1.04091443 23.43453037 1.05181217 35.15181637 C1.05704128 40.59202312 1.06413943 46.03221431 1.07543945 51.47241211 C1.08626735 56.71785702 1.09227662 61.96328692 1.09487724 67.20874214 C1.09673167 69.21470946 1.10035262 71.22067592 1.10573006 73.22663689 C1.11293919 76.02602824 1.113991 78.82535679 1.11352539 81.62475586 C1.11712067 82.46272705 1.12071594 83.30069824 1.12442017 84.1640625 C1.11405216 89.88594784 1.11405216 89.88594784 0 91 C-2.01964199 91.07244053 -4.04167124 91.08377188 -6.0625 91.0625 C-7.16722656 91.05347656 -8.27195312 91.04445313 -9.41015625 91.03515625 C-10.26480469 91.02355469 -11.11945312 91.01195313 -12 91 C-12 90.34 -12 89.68 -12 89 C-8.37 89 -4.74 89 -1 89 C-1.00222061 87.89974991 -1.00444122 86.79949982 -1.00672913 85.66590881 C-1.02695967 75.3207718 -1.04197171 64.97563877 -1.05181217 54.63048649 C-1.05704122 49.31134787 -1.06413927 43.99222516 -1.07543945 38.6730957 C-1.08626755 33.54436015 -1.09227667 28.41563994 -1.09487724 23.28689384 C-1.09673163 21.32558386 -1.10035251 19.36427476 -1.10573006 17.40297127 C-1.11293946 14.66584553 -1.11399099 11.92878403 -1.11352539 9.19165039 C-1.11712067 8.37238068 -1.12071594 7.55311096 -1.12442017 6.70901489 C-1.11405216 1.11405216 -1.11405216 1.11405216 0 0 Z " fill="#6195B4" transform="translate(583,32)"/>
<path d="M0 0 C2.05078125 0.03255208 4.1015625 0.06510417 6.15234375 0.09765625 C6.13171875 0.84015625 6.11109375 1.58265625 6.08984375 2.34765625 C6.14563063 4.80227904 6.45933415 6.75874886 7.15234375 9.09765625 C6.71921875 8.62328125 6.28609375 8.14890625 5.83984375 7.66015625 C4.12924762 5.86078668 4.12924762 5.86078668 1.15234375 5.09765625 C1.15234375 10.04765625 1.15234375 14.99765625 1.15234375 20.09765625 C0.82234375 20.09765625 0.49234375 20.09765625 0.15234375 20.09765625 C-0.17765625 21.74765625 -0.50765625 23.39765625 -0.84765625 25.09765625 C-0.18765625 25.09765625 0.47234375 25.09765625 1.15234375 25.09765625 C1.15234375 31.69765625 1.15234375 38.29765625 1.15234375 45.09765625 C-0.16765625 45.09765625 -1.48765625 45.09765625 -2.84765625 45.09765625 C-2.87292749 38.8496995 -2.89048969 32.60175584 -2.90258789 26.35375977 C-2.90762923 24.22647611 -2.91446216 22.09919594 -2.9230957 19.97192383 C-2.93517004 16.92137799 -2.94088639 13.8708778 -2.9453125 10.8203125 C-2.95047379 9.8630275 -2.95563507 8.90574249 -2.96095276 7.91944885 C-2.96102829 7.0386113 -2.96110382 6.15777374 -2.96118164 5.25024414 C-2.96340225 4.47080948 -2.96562286 3.69137482 -2.96791077 2.88832092 C-2.80142366 0.40922424 -2.48031215 0.13109472 0 0 Z " fill="#5C9228" transform="translate(355.84765625,133.90234375)"/>
<path d="M0 0 C1.17719326 2.35438651 1.08905996 3.64766815 1.02172852 6.26611328 C1.00163223 7.14687531 0.98153595 8.02763733 0.96083069 8.93508911 C0.93379562 9.88721283 0.90676056 10.83933655 0.87890625 11.8203125 C0.85529526 12.79410858 0.83168427 13.76790466 0.80735779 14.77120972 C0.73062849 17.88928472 0.646644 21.00711712 0.5625 24.125 C0.5092886 26.23566511 0.45654814 28.34634215 0.40429688 30.45703125 C0.27500087 35.63817177 0.13974366 40.81913132 0 46 C1.32 46 2.64 46 4 46 C4 39.4 4 32.8 4 26 C3.34 26 2.68 26 2 26 C2 24.02 2 22.04 2 20 C2.33 20 2.66 20 3 20 C3.33 15.38 3.66 10.76 4 6 C8 7 8 7 9 8 C9.15227908 9.74535255 9.22189694 11.49824241 9.25 13.25 C9.28867187 14.68085938 9.28867187 14.68085938 9.328125 16.140625 C9 19 9 19 7.51147461 21.33374023 C5.82055927 24.31653565 5.58321243 26.12099508 5.48828125 29.51953125 C5.43510742 31.0519043 5.43510742 31.0519043 5.38085938 32.61523438 C5.35830078 33.67033203 5.33574219 34.72542969 5.3125 35.8125 C5.27833984 36.88693359 5.24417969 37.96136719 5.20898438 39.06835938 C5.12673357 41.71213533 5.05750791 44.35558921 5 47 C3.02 47 1.04 47 -1 47 C-1.02527002 40.46721214 -1.04283292 33.93443679 -1.05493164 27.40161133 C-1.05997317 25.17732268 -1.06680623 22.95303737 -1.07543945 20.72875977 C-1.08751298 17.53921691 -1.09322996 14.34971771 -1.09765625 11.16015625 C-1.10281754 10.15912369 -1.10797882 9.15809113 -1.11329651 8.12672424 C-1.11337204 7.20584518 -1.11344757 6.28496613 -1.11352539 5.33618164 C-1.115746 4.52121719 -1.11796661 3.70625275 -1.12025452 2.86659241 C-1 1 -1 1 0 0 Z " fill="#8EAE67" transform="translate(353,133)"/>
<path d="M0 0 C0.99 0 1.98 0 3 0 C3 6.6 3 13.2 3 20 C2.67 19.01 2.34 18.02 2 17 C1.34 17 0.68 17 0 17 C0 20.3 0 23.6 0 27 C0.66 27 1.32 27 2 27 C2.33 26.34 2.66 25.68 3 25 C3 31.6 3 38.2 3 45 C1.68 45 0.36 45 -1 45 C-1.02527124 38.75204325 -1.04283344 32.50409959 -1.05493164 26.25610352 C-1.05997298 24.12881986 -1.06680591 22.00153969 -1.07543945 19.87426758 C-1.08751379 16.82372174 -1.09323014 13.77322155 -1.09765625 10.72265625 C-1.10281754 9.76537125 -1.10797882 8.80808624 -1.11329651 7.8217926 C-1.11337204 6.94095505 -1.11344757 6.06011749 -1.11352539 5.15258789 C-1.115746 4.37315323 -1.11796661 3.59371857 -1.12025452 2.79066467 C-1 1 -1 1 0 0 Z " fill="#578C21" transform="translate(425,134)"/>
<path d="M0 0 C2.98717976 0.33190886 4.73531859 0.80052995 7.15625 2.625 C9.62318863 5.80275146 9.40885665 7.7785837 9.25 11.75 C9.21390625 12.92046875 9.1778125 14.0909375 9.140625 15.296875 C9.07101562 16.63492188 9.07101562 16.63492188 9 18 C7.35 18.33 5.7 18.66 4 19 C4.03480469 18.31292969 4.06960938 17.62585938 4.10546875 16.91796875 C4.13253906 16.01691406 4.15960938 15.11585938 4.1875 14.1875 C4.22230469 13.29417969 4.25710938 12.40085938 4.29296875 11.48046875 C4.20002482 8.97977851 4.20002482 8.97977851 2.73828125 7.23828125 C0.78539118 5.6875678 0.78539118 5.6875678 -3 5 C-3 9.95 -3 14.9 -3 20 C-2.01 20.33 -1.02 20.66 0 21 C-1.875 21.625 -1.875 21.625 -4 22 C-6 20 -6 20 -6.22705078 18.12060547 C-6.21657715 17.37697754 -6.20610352 16.63334961 -6.1953125 15.8671875 C-6.18886719 15.06152344 -6.18242187 14.25585938 -6.17578125 13.42578125 C-6.15064453 12.16314453 -6.15064453 12.16314453 -6.125 10.875 C-6.11597656 10.02550781 -6.10695313 9.17601562 -6.09765625 8.30078125 C-6.07405647 6.20040116 -6.03818483 4.10016556 -6 2 C-4.02 2 -2.04 2 0 2 C0 1.34 0 0.68 0 0 Z " fill="#649630" transform="translate(503,134)"/>
<path d="M0 0 C1.65 0 3.3 0 5 0 C4.83935059 0.568396 4.67870117 1.13679199 4.51318359 1.72241211 C3.99477795 4.02317628 3.8437693 6.08675533 3.7890625 8.44140625 C3.76070313 9.27220703 3.73234375 10.10300781 3.703125 10.95898438 C3.65093104 12.69834801 3.60669297 14.43796814 3.5703125 16.17773438 C3.52390625 17.42200195 3.52390625 17.42200195 3.4765625 18.69140625 C3.45674316 19.44623291 3.43692383 20.20105957 3.41650391 20.97875977 C2.89485865 23.51023754 2.01486821 24.42504725 0 26 C-2.72507798 26.39078556 -5.23121956 26.13616953 -8 26 C-8 25.34 -8 24.68 -8 24 C-8.66 23.67 -9.32 23.34 -10 23 C-9.67 15.74 -9.34 8.48 -9 1 C-8.67 1 -8.34 1 -8 1 C-8 7.6 -8 14.2 -8 21 C-4.535 20.505 -4.535 20.505 -1 20 C-1.01160156 18.72382813 -1.02320313 17.44765625 -1.03515625 16.1328125 C-1.04453417 14.46354313 -1.05363437 12.79427217 -1.0625 11.125 C-1.07087891 10.28324219 -1.07925781 9.44148437 -1.08789062 8.57421875 C-1.09111328 7.76855469 -1.09433594 6.96289062 -1.09765625 6.1328125 C-1.10289307 5.38918457 -1.10812988 4.64555664 -1.11352539 3.87939453 C-1 2 -1 2 0 0 Z " fill="#679A38" transform="translate(437,133)"/>
<path d="M0 0 C3.43157515 2.28771677 3.56094372 2.83548005 4.375 6.6875 C5.27929053 11.85167153 4.69770304 14.53483634 2 19 C-2.04192978 21.69461986 -4.2051496 21.23200889 -9 21 C-10 20 -10 20 -10.0625 16.4375 C-10.041875 15.303125 -10.02125 14.16875 -10 13 C-9.01 13.495 -9.01 13.495 -8 14 C-5.6670134 14.04022391 -3.33293334 14.04320247 -1 14 C-1.01160156 13.24074219 -1.02320313 12.48148438 -1.03515625 11.69921875 C-1.04417969 10.70535156 -1.05320312 9.71148437 -1.0625 8.6875 C-1.07410156 7.70136719 -1.08570313 6.71523437 -1.09765625 5.69921875 C-1 3 -1 3 0 0 Z " fill="#719F43" transform="translate(485,159)"/>
<path d="M0 0 C2.97 0 5.94 0 9 0 C9 7.59 9 15.18 9 23 C8.01 23 7.02 23 6 23 C6 21.68 6 20.36 6 19 C5.34 19 4.68 19 4 19 C4 14.38 4 9.76 4 5 C2.68 5 1.36 5 0 5 C0 3.35 0 1.7 0 0 Z " fill="#659632" transform="translate(277,155)"/>
<path d="M0 0 C4.43772103 6.65658154 3.79548238 16.21901087 3 24 C2.01190769 27.85744334 0.70590672 31.40541084 -1 35 C-1.66 35 -2.32 35 -3 35 C-3 34.34 -3 33.68 -3 33 C-3.66 33 -4.32 33 -5 33 C-4.67 24.09 -4.34 15.18 -4 6 C-3.67 6 -3.34 6 -3 6 C-2.67 11.94 -2.34 17.88 -2 24 C-1.34 23.01 -0.68 22.02 0 21 C0.66 21.33 1.32 21.66 2 22 C1.67 18.04 1.34 14.08 1 10 C0.67 12.97 0.34 15.94 0 19 C-0.33 19 -0.66 19 -1 19 C-1.22304441 17.25181409 -1.4278645 15.50129677 -1.625 13.75 C-1.74101562 12.77546875 -1.85703125 11.8009375 -1.9765625 10.796875 C-2.0017355 7.79289648 -1.39769318 6.58199808 0 4 C0 2.68 0 1.36 0 0 Z " fill="#7FA957" transform="translate(394,141)"/>
<path d="M0 0 C0.66 0 1.32 0 2 0 C2 12.87 2 25.74 2 39 C0.68 38.67 -0.64 38.34 -2 38 C-1.88205894 32.7487788 -1.75783398 27.49775903 -1.62768555 22.24682617 C-1.584273 20.4591073 -1.54260271 18.67134526 -1.50268555 16.88354492 C-1.4451354 14.31936609 -1.38139797 11.75540588 -1.31640625 9.19140625 C-1.29969376 8.3872377 -1.28298126 7.58306915 -1.26576233 6.75453186 C-1.11387171 1.11387171 -1.11387171 1.11387171 0 0 Z " fill="#5C9325" transform="translate(339,140)"/>
<path d="M0 0 C1.17719326 2.35438651 1.08905996 3.64766815 1.02172852 6.26611328 C1.00163223 7.14687531 0.98153595 8.02763733 0.96083069 8.93508911 C0.93379562 9.88721283 0.90676056 10.83933655 0.87890625 11.8203125 C0.85529526 12.79410858 0.83168427 13.76790466 0.80735779 14.77120972 C0.73062849 17.88928472 0.646644 21.00711712 0.5625 24.125 C0.5092886 26.23566511 0.45654814 28.34634215 0.40429688 30.45703125 C0.27500087 35.63817177 0.13974366 40.81913132 0 46 C1.32 46 2.64 46 4 46 C3.67 40.06 3.34 34.12 3 28 C2.34 28 1.68 28 1 28 C1 24.7 1 21.4 1 18 C1.66 18 2.32 18 3 18 C3 19.65 3 21.3 3 23 C5.64 23 8.28 23 11 23 C11 23.33 11 23.66 11 24 C9.02 24 7.04 24 5 24 C5 24.66 5 25.32 5 26 C7.64 26 10.28 26 13 26 C13 26.33 13 26.66 13 27 C10.36 27 7.72 27 5 27 C5 33.6 5 40.2 5 47 C3.02 47 1.04 47 -1 47 C-1.02527002 40.46721214 -1.04283292 33.93443679 -1.05493164 27.40161133 C-1.05997317 25.17732268 -1.06680623 22.95303737 -1.07543945 20.72875977 C-1.08751298 17.53921691 -1.09322996 14.34971771 -1.09765625 11.16015625 C-1.10281754 10.15912369 -1.10797882 9.15809113 -1.11329651 8.12672424 C-1.11337204 7.20584518 -1.11344757 6.28496613 -1.11352539 5.33618164 C-1.115746 4.52121719 -1.11796661 3.70625275 -1.12025452 2.86659241 C-1 1 -1 1 0 0 Z " fill="#92B56F" transform="translate(424,133)"/>
<path d="M0 0 C0.556875 0.2475 1.11375 0.495 1.6875 0.75 C1.6875 4.53470022 1.64419116 6.6974114 -0.94921875 9.55078125 C-4.21092909 12.15393674 -6.42651191 13.64969946 -10.625 14.125 C-11.511875 14.00125 -12.39875 13.8775 -13.3125 13.75 C-14.3025 13.75 -15.2925 13.75 -16.3125 13.75 C-14.92169892 12.16224451 -13.52461596 10.57999061 -12.125 9 C-10.95904297 7.67742187 -10.95904297 7.67742187 -9.76953125 6.328125 C-3.38942308 -0.36642412 -3.38942308 -0.36642412 0 0 Z " fill="#6B9A3C" transform="translate(92.3125,137.25)"/>
<path d="M0 0 C2.475 0.495 2.475 0.495 5 1 C5 14.2 5 27.4 5 41 C8.3 41 11.6 41 15 41 C15.33 42.65 15.66 44.3 16 46 C9.07 45.505 9.07 45.505 2 45 C2 43.68 2 42.36 2 41 C2.66 41 3.32 41 4 41 C3.67 28.46 3.34 15.92 3 3 C2.34 3 1.68 3 1 3 C0.67 2.01 0.34 1.02 0 0 Z " fill="#80A755" transform="translate(572,133)"/>
<path d="M0 0 C5 1 5 1 6.8125 2.125 C8.72950563 5.15185099 8.42793633 7.5153756 8 11 C6.25 13.4375 6.25 13.4375 4 15 C2.68 15 1.36 15 0 15 C0 10.05 0 5.1 0 0 Z " fill="#F1F5EC" transform="translate(500,139)"/>
<path d="M0 0 C1 1 1 1 1.0625 4.0625 C1.041875 5.031875 1.02125 6.00125 1 7 C-0.98 7 -2.96 7 -5 7 C-5.66 9.64 -6.32 12.28 -7 15 C-9 13 -9 13 -10 10 C-10.66 10.66 -11.32 11.32 -12 12 C-12.4206933 7.70892835 -12.45543836 5.64865463 -9.9375 2.0625 C-6.33461577 -0.46718467 -4.31418769 -0.49779089 0 0 Z " fill="#669834" transform="translate(487,133)"/>
<path d="M0 0 C3 0.25 3 0.25 5 2.25 C5.25 5.25 5.25 5.25 5 8.25 C3 10.25 3 10.25 0 10.5 C-3 10.25 -3 10.25 -5 8.25 C-5.25 5.25 -5.25 5.25 -5 2.25 C-3 0.25 -3 0.25 0 0 Z " fill="#EEDBFE" transform="translate(519,8.75)"/>
<path d="M0 0 C0.33 0 0.66 0 1 0 C1.50763865 2.68625454 2.00627197 5.37368383 2.5 8.0625 C2.64308594 8.81466797 2.78617188 9.56683594 2.93359375 10.34179688 C3.776431 14.97740175 4.15015262 19.2889615 4 24 C2.35 24 0.7 24 -1 24 C-3.42857143 16.57142857 -3.42857143 16.57142857 -2 13 C-1.67 13 -1.34 13 -1 13 C-1.020625 11.783125 -1.04125 10.56625 -1.0625 9.3125 C-1.06824116 6.08022678 -0.78766315 3.15065259 0 0 Z " fill="#82A85A" transform="translate(563,156)"/>
<path d="M0 0 C0.66 0 1.32 0 2 0 C2.33 2.64 2.66 5.28 3 8 C2.34 8 1.68 8 1 8 C1 9.65 1 11.3 1 13 C1.66 11.68 2.32 10.36 3 9 C3.33 9 3.66 9 4 9 C4 13.29 4 17.58 4 22 C3.34 22 2.68 22 2 22 C0.36323743 23.9600281 0.36323743 23.9600281 -1 26 C-1.22515501 22.04243356 -1.42727348 18.08402412 -1.625 14.125 C-1.68945312 12.99707031 -1.75390625 11.86914062 -1.8203125 10.70703125 C-1.871875 9.63066406 -1.9234375 8.55429688 -1.9765625 7.4453125 C-2.02893066 6.45031738 -2.08129883 5.45532227 -2.13525391 4.43017578 C-2 2 -2 2 0 0 Z " fill="#589024" transform="translate(392,141)"/>
<path d="M0 0 C0.33 0 0.66 0 1 0 C1.33 2.31 1.66 4.62 2 7 C1.34 7 0.68 7 0 7 C0.33 7.99 0.66 8.98 1 10 C1.33 9.67 1.66 9.34 2 9 C3.68608966 8.92794489 5.37500659 8.91613932 7.0625 8.9375 C7.98160156 8.94652344 8.90070312 8.95554688 9.84765625 8.96484375 C10.55792969 8.97644531 11.26820313 8.98804688 12 9 C12 9.33 12 9.66 12 10 C9.69 10 7.38 10 5 10 C4.34 13.3 3.68 16.6 3 20 C1.02 20 -0.96 20 -3 20 C-2.01 13.4 -1.02 6.8 0 0 Z " fill="#7CA651" transform="translate(548,160)"/>
<path d="M0 0 C0.99 0.33 1.98 0.66 3 1 C3 2.32 3 3.64 3 5 C3.66 4.67 4.32 4.34 5 4 C5.99 4.33 6.98 4.66 8 5 C8.66 8.63 9.32 12.26 10 16 C7.69 16 5.38 16 3 16 C2.49595192 13.89679937 1.99689492 11.79240209 1.5 9.6875 C1.08234375 7.92986328 1.08234375 7.92986328 0.65625 6.13671875 C0 3 0 3 0 0 Z " fill="#8BB167" transform="translate(362,164)"/>
<path d="M0 0 C1.32 0 2.64 0 4 0 C4 6.6 4 13.2 4 20 C3.34 18.68 2.68 17.36 2 16 C1.34 16.33 0.68 16.66 0 17 C-1.35827701 14.28344597 -1.1323445 12.09210594 -1.125 9.0625 C-1.12757813 8.00160156 -1.13015625 6.94070312 -1.1328125 5.84765625 C-1 3 -1 3 0 0 Z " fill="#5F922B" transform="translate(266,146)"/>
<path d="M0 0 C4.28806873 0.47645208 6.26647487 1.65902484 9 5 C9 5.66 9 6.32 9 7 C7 7 7 7 5 5.0625 C4.34 4.381875 3.68 3.70125 3 3 C2.34 2.67 1.68 2.34 1 2 C1 2.66 1 3.32 1 4 C-0.32 4 -1.64 4 -3 4 C-3 9.28 -3 14.56 -3 20 C-2.01 20.33 -1.02 20.66 0 21 C-1.875 21.625 -1.875 21.625 -4 22 C-6 20 -6 20 -6.22705078 18.12060547 C-6.21657715 17.37697754 -6.20610352 16.63334961 -6.1953125 15.8671875 C-6.18886719 15.06152344 -6.18242187 14.25585938 -6.17578125 13.42578125 C-6.15064453 12.16314453 -6.15064453 12.16314453 -6.125 10.875 C-6.11597656 10.02550781 -6.10695313 9.17601562 -6.09765625 8.30078125 C-6.07405647 6.20040116 -6.03818483 4.10016556 -6 2 C-4.02 2 -2.04 2 0 2 C0 1.34 0 0.68 0 0 Z " fill="#68983B" transform="translate(503,134)"/>
<path d="M0 0 C0.33 0 0.66 0 1 0 C1.66 5.28 2.32 10.56 3 16 C1.02 16 -0.96 16 -3 16 C-4.00743953 10.96280234 -4.04572988 7.73747972 -2 3 C-1.34 2.01 -0.68 1.02 0 0 Z " fill="#7BA552" transform="translate(308,164)"/>
<path d="M0 0 C3.76080132 4.57836682 4.1508978 8.14364779 4.1875 14 C4.20167969 15.03125 4.21585938 16.0625 4.23046875 17.125 C4.00276947 19.96545203 3.46504061 21.59107948 2 24 C1.67 23.01 1.34 22.02 1 21 C0.34 21 -0.32 21 -1 21 C-0.9278125 19.90300781 -0.855625 18.80601563 -0.78125 17.67578125 C-0.68741634 16.22135956 -0.593671 14.76693217 -0.5 13.3125 C-0.42845703 12.2306543 -0.42845703 12.2306543 -0.35546875 11.12695312 C-0.11796481 7.41171286 0.05874637 3.72305126 0 0 Z " fill="#287099" transform="translate(144,76)"/>
<path d="M0 0 C0.66 0 1.32 0 2 0 C2.06058594 0.69867188 2.12117188 1.39734375 2.18359375 2.1171875 C2.26738281 3.02726563 2.35117187 3.93734375 2.4375 4.875 C2.51871094 5.77992188 2.59992188 6.68484375 2.68359375 7.6171875 C2.86989285 10.01110861 2.86989285 10.01110861 4 12 C4.039992 13.99960012 4.04346799 16.00047242 4 18 C2.02 18 0.04 18 -2 18 C-1.34 12.06 -0.68 6.12 0 0 Z " fill="#E9F0E3" transform="translate(299,146)"/>
<path d="M0 0 C0.33 0 0.66 0 1 0 C1 7.26 1 14.52 1 22 C2.32 21.67 3.64 21.34 5 21 C6.74886981 20.93375493 8.50002748 20.91447405 10.25 20.9375 C12.60125 20.9684375 12.60125 20.9684375 15 21 C15 16.71 15 12.42 15 8 C15.33 8 15.66 8 16 8 C16.19390729 10.31197155 16.37996367 12.6246029 16.5625 14.9375 C16.66691406 16.22527344 16.77132812 17.51304688 16.87890625 18.83984375 C16.91886719 19.88269531 16.95882812 20.92554688 17 22 C16 23 16 23 12.40234375 23.09765625 C10.91402745 23.09191272 9.42573704 23.07889891 7.9375 23.0625 C5.318125 23.041875 2.69875 23.02125 0 23 C0 15.41 0 7.82 0 0 Z " fill="#6197B1" transform="translate(17,101)"/>
<path d="M0 0 C0.33 0 0.66 0 1 0 C2.22899346 6.06815522 3.27560214 11.79895188 3 18 C1.35 18 -0.3 18 -2 18 C-2.2361959 11.59646678 -1.823321 6.15370839 0 0 Z " fill="#F3F7F0" transform="translate(556,146)"/>
<path d="M0 0 C1.32 0 2.64 0 4 0 C4 3.3 4 6.6 4 10 C3.34 10 2.68 10 2 10 C2 11.65 2 13.3 2 15 C-0.31074207 13.19159316 -0.98576618 12.04927091 -1.8125 9.1875 C-2.02185856 5.62840444 -1.32812674 3.2812543 0 0 Z " fill="#689937" transform="translate(314,137)"/>
<path d="M0 0 C1.5625 1.75 1.5625 1.75 3 4 C2.6875 6.25 2.6875 6.25 2 8 C1.34 8 0.68 8 0 8 C0 8.99 0 9.98 0 11 C0.66 11.33 1.32 11.66 2 12 C1.34 12 0.68 12 0 12 C0.33 14.31 0.66 16.62 1 19 C0.01 19 -0.98 19 -2 19 C-1.9175 18.030625 -1.835 17.06125 -1.75 16.0625 C-1.71541924 11.82635631 -3.26989495 8.66038553 -5.125 4.91796875 C-6 3 -6 3 -6 1 C-3 2 -3 2 -2 4 C-1.34 2.68 -0.68 1.36 0 0 Z " fill="#7FA755" transform="translate(484,154)"/>
<path d="M0 0 C0.33 0 0.66 0 1 0 C1.66 6.93 2.32 13.86 3 21 C1.68 21.33 0.36 21.66 -1 22 C-1.33 22.66 -1.66 23.32 -2 24 C-3.60355101 20.49223216 -4.22036864 17.85645121 -4 14 C-3.01 14 -2.02 14 -1 14 C-0.67 14.99 -0.34 15.98 0 17 C0 11.39 0 5.78 0 0 Z " fill="#7DA652" transform="translate(453,151)"/>
<path d="M0 0 C0.33 0 0.66 0 1 0 C1.04898437 1.134375 1.09796875 2.26875 1.1484375 3.4375 C1.2235414 4.95835398 1.29908584 6.47918625 1.375 8 C1.4059375 8.74378906 1.436875 9.48757812 1.46875 10.25390625 C1.73753793 15.40567483 2.61063884 20.02992756 4 25 C5.32 25.33 6.64 25.66 8 26 C7.01 26 6.02 26 5 26 C4.67 26.66 4.34 27.32 4 28 C4 27.34 4 26.68 4 26 C2.68 25.67 1.36 25.34 0 25 C0.33 23.68 0.66 22.36 1 21 C-0.32 21.33 -1.64 21.66 -3 22 C-2.505 20.515 -2.505 20.515 -2 19 C-0.80980869 15.15612289 -0.66763698 11.24155618 -0.4375 7.25 C-0.39431641 6.55261719 -0.35113281 5.85523438 -0.30664062 5.13671875 C-0.20110404 3.42468078 -0.1001009 1.71236439 0 0 Z " fill="#75A047" transform="translate(379,149)"/>
<path d="M0 0 C2.15641331 3.23461997 2.81100973 5.67072961 3.6875 9.4375 C3.95949219 10.57058594 4.23148437 11.70367187 4.51171875 12.87109375 C4.96085657 15.74916889 4.98469931 17.31025087 4 20 C3.67 19.34 3.34 18.68 3 18 C2.34 18 1.68 18 1 18 C-0.83292414 11.59233959 -1.04559253 6.58723293 0 0 Z " fill="#729F47" transform="translate(303,142)"/>
<path d="M0 0 C0.33 0 0.66 0 1 0 C1 1.65 1 3.3 1 5 C2.32 5 3.64 5 5 5 C5 9.62 5 14.24 5 19 C5.66 19 6.32 19 7 19 C7 20.32 7 21.64 7 23 C7.66 23.33 8.32 23.66 9 24 C2.6 26.21538462 2.6 26.21538462 -0.4375 25.125 C-0.953125 24.75375 -1.46875 24.3825 -2 24 C-0.35 23.67 1.3 23.34 3 23 C3 22.34 3 21.68 3 21 C2.01 20.34 1.02 19.68 0 19 C1.32 19 2.64 19 4 19 C4 14.71 4 10.42 4 6 C2.68 6 1.36 6 0 6 C0 4.02 0 2.04 0 0 Z " fill="#98B676" transform="translate(276,155)"/>
<path d="M0 0 C0.33 0 0.66 0 1 0 C1.33 3.63 1.66 7.26 2 11 C2.99 11.33 3.98 11.66 5 12 C5.66 11.34 6.32 10.68 7 10 C7.33 12.97 7.66 15.94 8 19 C6.35 19 4.7 19 3 19 C2.67 19.66 2.34 20.32 2 21 C-0.21211746 13.94887561 -0.20177072 7.35342179 0 0 Z " fill="#8EB26A" transform="translate(264,150)"/>
<path d="M0 0 C0.99 0 1.98 0 3 0 C3 6.6 3 13.2 3 20 C2.67 19.01 2.34 18.02 2 17 C1.34 17 0.68 17 0 17 C0 11.39 0 5.78 0 0 Z " fill="#5E9329" transform="translate(425,134)"/>
<path d="M0 0 C0.99 0.33 1.98 0.66 3 1 C3 6.94 3 12.88 3 19 C2.01 18.67 1.02 18.34 0 18 C0 12.06 0 6.12 0 0 Z " fill="#8EB267" transform="translate(498,160)"/>
<path d="M0 0 C0.99 0.66 1.98 1.32 3 2 C3.46067758 7.43599548 2.97313651 11.91138478 1 17 C0.01 17.33 -0.98 17.66 -2 18 C-2.33 18.99 -2.66 19.98 -3 21 C-2.505 16.545 -2.505 16.545 -2 12 C-1.01 12 -0.02 12 1 12 C0.67 8.04 0.34 4.08 0 0 Z " fill="#5A9126" transform="translate(552,144)"/>
<path d="M0 0 C1.32 0.33 2.64 0.66 4 1 C4 4.63 4 8.26 4 12 C2.68 12.33 1.36 12.66 0 13 C0 8.71 0 4.42 0 0 Z " fill="#FAFBFA" transform="translate(358,140)"/>
<path d="M0 0 C0 0.66 0 1.32 0 2 C-1.98 2.99 -1.98 2.99 -4 4 C-3.01 5.32 -2.02 6.64 -1 8 C-5.75 11 -5.75 11 -8 11 C-8.68707555 8.50935112 -9 6.62113708 -9 4 C-6.01894686 1.41642061 -3.9939934 0 0 0 Z " fill="#759F49" transform="translate(101,133)"/>
<path d="M0 0 C2.31 0.66 4.62 1.32 7 2 C6.67 2.66 6.34 3.32 6 4 C8.475 4.99 8.475 4.99 11 6 C9 8 9 8 7.08984375 8.23046875 C1.11111111 8.11111111 1.11111111 8.11111111 0 7 C-0.04092937 4.66702567 -0.04241723 2.33294775 0 0 Z " fill="#75A049" transform="translate(475,172)"/>
<path d="M0 0 C3.4430565 5.16458475 3.13280841 10.26056862 3.0625 16.3125 C3.05798828 17.05306641 3.05347656 17.79363281 3.04882812 18.55664062 C3.03712175 20.37112899 3.01918898 22.18557534 3 24 C2.67 24 2.34 24 2 24 C1.67 19.38 1.34 14.76 1 10 C0.67 12.97 0.34 15.94 0 19 C-0.33 19 -0.66 19 -1 19 C-1.22304441 17.25181409 -1.4278645 15.50129677 -1.625 13.75 C-1.74101562 12.77546875 -1.85703125 11.8009375 -1.9765625 10.796875 C-2.0017355 7.79289648 -1.39769318 6.58199808 0 4 C0 2.68 0 1.36 0 0 Z " fill="#8FB268" transform="translate(394,141)"/>
<path d="M0 0 C0.33 0 0.66 0 1 0 C1 1.65 1 3.3 1 5 C1.66 5 2.32 5 3 5 C3.33 8.63 3.66 12.26 4 16 C2.35 15.01 0.7 14.02 -1 13 C-1.33 13.99 -1.66 14.98 -2 16 C-1.34 10.72 -0.68 5.44 0 0 Z " fill="#83A95B" transform="translate(294,146)"/>
<path d="M0 0 C1.9375 0.1875 1.9375 0.1875 4 1 C6.02755186 3.93995019 6 5.27704003 6 9 C4.35 9.33 2.7 9.66 1 10 C0.22662374 7.01697727 -0.50652112 4.04311974 -1 1 C-0.67 0.67 -0.34 0.34 0 0 Z " fill="#6B9C3C" transform="translate(363,160)"/>
<path d="M0 0 C0.74886475 0.00523682 1.49772949 0.01047363 2.26928711 0.01586914 C3.07817383 0.0190918 3.88706055 0.02231445 4.72045898 0.02563477 C5.5705957 0.03401367 6.42073242 0.04239258 7.29663086 0.05102539 C8.15063477 0.05553711 9.00463867 0.06004883 9.88452148 0.06469727 C12.00108749 0.07652166 14.11761771 0.0944577 16.23413086 0.11352539 C16.23413086 2.09352539 16.23413086 4.07352539 16.23413086 6.11352539 C15.57413086 5.78352539 14.91413086 5.45352539 14.23413086 5.11352539 C14.23413086 4.12352539 14.23413086 3.13352539 14.23413086 2.11352539 C8.95413086 2.11352539 3.67413086 2.11352539 -1.76586914 2.11352539 C-1.76586914 3.43352539 -1.76586914 4.75352539 -1.76586914 6.11352539 C0.21413086 6.11352539 2.19413086 6.11352539 4.23413086 6.11352539 C4.23413086 6.44352539 4.23413086 6.77352539 4.23413086 7.11352539 C1.92413086 7.11352539 -0.38586914 7.11352539 -2.76586914 7.11352539 C-2.8084127 5.11397793 -2.80667697 3.11310903 -2.76586914 1.11352539 C-1.76586914 0.11352539 -1.76586914 0.11352539 0 0 Z " fill="#8CAE67" transform="translate(331.765869140625,132.886474609375)"/>
<path d="M0 0 C2 4 2 4 2 8 C2.99 7.67 3.98 7.34 5 7 C6.28317892 10.84953676 6.06643637 13.94738135 6 18 C4 15 4 15 3 13 C2.34 13 1.68 13 1 13 C0.67 8.71 0.34 4.42 0 0 Z " fill="#5D9025" transform="translate(302,152)"/>
<path d="M0 0 C0.33 0 0.66 0 1 0 C1.33 4.95 1.66 9.9 2 15 C3.32 14.67 4.64 14.34 6 14 C6.33 15.65 6.66 17.3 7 19 C5.35 19 3.7 19 2 19 C2 18.34 2 17.68 2 17 C1.34 17 0.68 17 0 17 C-0.33 17.66 -0.66 18.32 -1 19 C-0.67 12.73 -0.34 6.46 0 0 Z " fill="#60932B" transform="translate(498,140)"/>
<path d="M0 0 C2.59213877 3.81196878 1.74410672 6.60977034 1 11 C0.96296763 13.33303944 0.95239087 15.66715242 1 18 C0.01 18 -0.98 18 -2 18 C-2.33 18.99 -2.66 19.98 -3 21 C-2.68981396 18.4372008 -2.37693109 15.8747789 -2.0625 13.3125 C-1.97548828 12.59126953 -1.88847656 11.87003906 -1.79882812 11.12695312 C-1.33686195 7.37989416 -0.80832321 3.69207089 0 0 Z " fill="#83A95C" transform="translate(552,138)"/>
<path d="M0 0 C0 0.66 0 1.32 0 2 C-3.9743832 2.96674186 -7.53337291 3.04657372 -11.61328125 2.87890625 C-12.86044922 2.83056641 -14.10761719 2.78222656 -15.39257812 2.73242188 C-16.68615234 2.67634766 -17.97972656 2.62027344 -19.3125 2.5625 C-20.62541016 2.51029297 -21.93832031 2.45808594 -23.29101562 2.40429688 C-26.52759739 2.2748336 -29.76385421 2.13987458 -33 2 C-33 1.67 -33 1.34 -33 1 C-28.9432275 0.85669424 -24.88642396 0.71430497 -20.82958984 0.57275391 C-19.4503493 0.52450154 -18.07111739 0.47600154 -16.69189453 0.42724609 C-14.70607777 0.35709107 -12.7202267 0.28790901 -10.734375 0.21875 C-9.54038086 0.17685547 -8.34638672 0.13496094 -7.11621094 0.09179688 C-4.74497189 0.02194527 -2.37226766 0 0 0 Z " fill="#659A38" transform="translate(171,128)"/>
<path d="M0 0 C2.31 0 4.62 0 7 0 C8.24546405 2.49092811 7.7767578 3.41080733 7 6 C4.69 6 2.38 6 0 6 C0 4.02 0 2.04 0 0 Z " fill="#62952C" transform="translate(319,134)"/>
<path d="M0 0 C0.66 0 1.32 0 2 0 C2.66 0.99 3.32 1.98 4 3 C4.66 3.33 5.32 3.66 6 4 C5.37240135 6.92879371 4.41377341 9.36095629 3 12 C0.01485372 7.89542386 -0.2954439 5.02254631 0 0 Z " fill="#639632" transform="translate(319,156)"/>
<path d="M0 0 C3.465 1.485 3.465 1.485 7 3 C6.01 3.33 5.02 3.66 4 4 C4 4.66 4 5.32 4 6 C5.65 6 7.3 6 9 6 C9 6.66 9 7.32 9 8 C2.25 8.125 2.25 8.125 0 7 C0 4.69 0 2.38 0 0 Z " fill="#6B993B" transform="translate(313,172)"/>
<path d="M0 0 C0.66 0 1.32 0 2 0 C2 3.63 2 7.26 2 11 C0.35 11.33 -1.3 11.66 -3 12 C-2.88601335 10.37419034 -2.75844341 8.74932843 -2.625 7.125 C-2.55539062 6.22007812 -2.48578125 5.31515625 -2.4140625 4.3828125 C-2 2 -2 2 0 0 Z " fill="#5C9323" transform="translate(510,141)"/>
<path d="M0 0 C0.33 0 0.66 0 1 0 C1.53132389 2.58157368 2.05034379 5.16461756 2.5625 7.75 C2.78969727 8.84441406 2.78969727 8.84441406 3.02148438 9.9609375 C3.74557178 13.66557073 4.09817231 16.39322322 3 20 C3 19.01 3 18.02 3 17 C2.34 17 1.68 17 1 17 C1 15.68 1 14.36 1 13 C0.34 12.67 -0.32 12.34 -1 12 C-1.14285714 3.42857143 -1.14285714 3.42857143 0 0 Z " fill="#84AA5D" transform="translate(559,134)"/>
<path d="M0 0 C1.9375 0.75 1.9375 0.75 4 2 C5.35041457 5.3466796 4.78195173 7.4330913 3.5625 10.75 C3.27503906 11.54921875 2.98757813 12.3484375 2.69140625 13.171875 C2.46324219 13.77515625 2.23507812 14.3784375 2 15 C1.67 15 1.34 15 1 15 C0.93941406 14.30132812 0.87882812 13.60265625 0.81640625 12.8828125 C0.73261719 11.97273437 0.64882813 11.06265625 0.5625 10.125 C0.48128906 9.22007812 0.40007812 8.31515625 0.31640625 7.3828125 C0.13010715 4.98889139 0.13010715 4.98889139 -1 3 C-0.67 2.01 -0.34 1.02 0 0 Z " fill="#5E9225" transform="translate(362,135)"/>
<path d="M0 0 C3.42353587 1.21480305 5.01180815 3.01771223 7 6 C4.36 6.33 1.72 6.66 -1 7 C-1.33 5.02 -1.66 3.04 -2 1 C-1.34 0.67 -0.68 0.34 0 0 Z " fill="#6D9B3D" transform="translate(269,168)"/>
<path d="M0 0 C1.98 0 3.96 0 6 0 C6.04254356 1.99954746 6.04080783 4.00041636 6 6 C5.67 6.33 5.34 6.66 5 7 C4.76712992 8.68183948 4.58735834 10.3712416 4.4375 12.0625 C4.31181641 13.44115234 4.31181641 13.44115234 4.18359375 14.84765625 C4.12300781 15.55792969 4.06242187 16.26820313 4 17 C3.67 17 3.34 17 3 17 C3 12.05 3 7.1 3 2 C2.01 2 1.02 2 0 2 C0 1.34 0 0.68 0 0 Z " fill="#5C9227" transform="translate(278,157)"/>
<path d="M0 0 C1.65 0 3.3 0 5 0 C4.67 0.99 4.34 1.98 4 3 C3.01 3 2.02 3 1 3 C1 8.94 1 14.88 1 21 C0.34 21.33 -0.32 21.66 -1 22 C-1.02895225 18.70835171 -1.0467823 15.41673601 -1.0625 12.125 C-1.07506836 10.71927734 -1.07506836 10.71927734 -1.08789062 9.28515625 C-1.09111328 8.38925781 -1.09433594 7.49335938 -1.09765625 6.5703125 C-1.10289307 5.74289551 -1.10812988 4.91547852 -1.11352539 4.06298828 C-1 2 -1 2 0 0 Z " fill="#82AA59" transform="translate(437,133)"/>
<path d="M0 0 C1.485 0.99 1.485 0.99 3 2 C3.39507893 6.34586828 3.45331002 8.32003497 1 12 C0.34 12 -0.32 12 -1 12 C-1.02712066 10.56260487 -1.04645067 9.12506137 -1.0625 7.6875 C-1.07410156 6.88699219 -1.08570313 6.08648437 -1.09765625 5.26171875 C-1 3 -1 3 0 0 Z " fill="#619530" transform="translate(485,159)"/>
<path d="M0 0 C3 3 3 3 3.36328125 4.9375 C3.34652344 5.618125 3.32976562 6.29875 3.3125 7 C3.30863281 7.680625 3.30476563 8.36125 3.30078125 9.0625 C3 11 3 11 1 14 C1 12.35 1 10.7 1 9 C0.34 9 -0.32 9 -1 9 C-0.67 6.03 -0.34 3.06 0 0 Z " fill="#5C9228" transform="translate(296,142)"/>
<path d="M0 0 C1.98 0 3.96 0 6 0 C6 2.64 6 5.28 6 8 C5.34 7.01 4.68 6.02 4 5 C2.02 5.99 2.02 5.99 0 7 C0 4.69 0 2.38 0 0 Z " fill="#6B9B3D" transform="translate(297,133)"/>
<path d="M0 0 C0.33 0.99 0.66 1.98 1 3 C3.31 3 5.62 3 8 3 C6.08400609 5.44821444 5.02756971 5.99324823 1.9375 6.75 C-1 7 -1 7 -3 6 C-1.125 1.125 -1.125 1.125 0 0 Z " fill="#4481A9" transform="translate(186,70)"/>
<path d="M0 0 C0.33 0.66 0.66 1.32 1 2 C1.99 2.33 2.98 2.66 4 3 C5.231394 6.69418201 4.64432764 9.2056261 4 13 C3.67 13 3.34 13 3 13 C3 10.69 3 8.38 3 6 C-0.0745356 6.7763932 -0.0745356 6.7763932 -2 9 C-1.125 2.25 -1.125 2.25 0 0 Z " fill="#8BAF65" transform="translate(267,140)"/>
<path d="M0 0 C1.53445094 3.06890187 0.54984289 5.70094266 0 9 C-2.66666667 9 -5.33333333 9 -8 9 C-5.36 6.03 -2.72 3.06 0 0 Z " fill="#669332" transform="translate(84,142)"/>
<path d="M0 0 C0.33 0.66 0.66 1.32 1 2 C2.65 1.67 4.3 1.34 6 1 C5.34 2.65 4.68 4.3 4 6 C2.68 6 1.36 6 0 6 C-0.33 5.34 -0.66 4.68 -1 4 C-3.02463255 3.34786708 -3.02463255 3.34786708 -5 3 C-4.67 2.34 -4.34 1.68 -4 1 C-1.9375 0.375 -1.9375 0.375 0 0 Z " fill="#7BA552" transform="translate(462,172)"/>
<path d="M0 0 C0.66 0 1.32 0 2 0 C2 2.97 2 5.94 2 9 C0.35 9 -1.3 9 -3 9 C-3 8.01 -3 7.02 -3 6 C-2.34 6 -1.68 6 -1 6 C-1.0309375 4.7934375 -1.0309375 4.7934375 -1.0625 3.5625 C-1 1 -1 1 0 0 Z " fill="#5E9329" transform="translate(293,170)"/>
<path d="M0 0 C7.26 0.33 14.52 0.66 22 1 C22 1.33 22 1.66 22 2 C19.0837882 2.22201613 16.16792256 2.42808498 13.25 2.625 C12.425 2.68945312 11.6 2.75390625 10.75 2.8203125 C9.95078125 2.871875 9.1515625 2.9234375 8.328125 2.9765625 C7.22839355 3.05511475 7.22839355 3.05511475 6.10644531 3.13525391 C3.65224559 2.97767085 2.11146787 2.22264839 0 1 C0 0.67 0 0.34 0 0 Z " fill="#96B773" transform="translate(171,167)"/>
<path d="M0 0 C0.66 0 1.32 0 2 0 C2 0.66 2 1.32 2 2 C3.65 2 5.3 2 7 2 C7 2.33 7 2.66 7 3 C5.02 3.33 3.04 3.66 1 4 C0.67 9.61 0.34 15.22 0 21 C-0.33 21 -0.66 21 -1 21 C-1.02895976 17.87501937 -1.04678483 14.7500731 -1.0625 11.625 C-1.07087891 10.73554688 -1.07925781 9.84609375 -1.08789062 8.9296875 C-1.09111328 8.07890625 -1.09433594 7.228125 -1.09765625 6.3515625 C-1.10289307 5.56604004 -1.10812988 4.78051758 -1.11352539 3.97119141 C-1 2 -1 2 0 0 Z " fill="#73A047" transform="translate(498,157)"/>
<path d="M0 0 C1.98 0.495 1.98 0.495 4 1 C4.36923077 6.53846154 4.36923077 6.53846154 2.5 8.875 C1.7575 9.431875 1.7575 9.431875 1 10 C-0.83691257 6.21812119 -1.15837626 4.05431692 0 0 Z " fill="#63952E" transform="translate(464,139)"/>
<path d="M0 0 C1.125 1.75 1.125 1.75 2 4 C0.98637869 7.04086393 -0.71875463 8.81793921 -3 11 C-3.33 11.66 -3.66 12.32 -4 13 C-5.65 12.67 -7.3 12.34 -9 12 C-8.236875 11.4225 -7.47375 10.845 -6.6875 10.25 C-3.0406399 7.1968148 -0.84634747 4.73954584 0 0 Z " fill="#3078A3" transform="translate(289,101)"/>
<path d="M0 0 C0.33 0 0.66 0 1 0 C1.05423638 1.91635217 1.09289963 3.83314925 1.125 5.75 C1.14820313 6.81734375 1.17140625 7.8846875 1.1953125 8.984375 C1.00487687 11.92470106 0.52670104 13.52361878 -1 16 C-1.33 15.01 -1.66 14.02 -2 13 C-2.66 13 -3.32 13 -4 13 C-3.67 10.36 -3.34 7.72 -3 5 C-2.34 6.32 -1.68 7.64 -1 9 C-0.67 6.03 -0.34 3.06 0 0 Z " fill="#5996B3" transform="translate(147,84)"/>
<path d="M0 0 C5.28 0 10.56 0 16 0 C16 0.33 16 0.66 16 1 C12.7 1.33 9.4 1.66 6 2 C6 2.66 6 3.32 6 4 C4.02 4 2.04 4 0 4 C0 2.68 0 1.36 0 0 Z " fill="#58911F" transform="translate(330,135)"/>
<path d="M0 0 C0 1.65 0 3.3 0 5 C-0.639375 5.28875 -1.27875 5.5775 -1.9375 5.875 C-4.15206079 6.82823451 -4.15206079 6.82823451 -5 9 C-5.66 9 -6.32 9 -7 9 C-5.125 3.25 -5.125 3.25 -4 1 C-1 0 -1 0 0 0 Z " fill="#1D6C99" transform="translate(146,96)"/>
<path d="M0 0 C1.93719378 -0.05406122 3.87481921 -0.09282025 5.8125 -0.125 C6.89144531 -0.14820313 7.97039062 -0.17140625 9.08203125 -0.1953125 C12 0 12 0 15 2 C11.58860997 3.09651823 8.79344419 2.94215473 5.25 2.5625 C3.77273437 2.40974609 3.77273437 2.40974609 2.265625 2.25390625 C1.51796875 2.17011719 0.7703125 2.08632812 0 2 C0 1.34 0 0.68 0 0 Z " fill="#729D44" transform="translate(122,150)"/>
<path d="M0 0 C0.99 0 1.98 0 3 0 C3 0.66 3 1.32 3 2 C3.66 2 4.32 2 5 2 C5.33 3.65 5.66 5.3 6 7 C4.35 7 2.7 7 1 7 C0.67 4.69 0.34 2.38 0 0 Z " fill="#5B8F24" transform="translate(365,172)"/>
<path d="M0 0 C0 0.99 0 1.98 0 3 C0.66 3.33 1.32 3.66 2 4 C-1.63 3.67 -5.26 3.34 -9 3 C-9 2.34 -9 1.68 -9 1 C-5.8035914 -0.06546953 -3.34252724 -0.07427838 0 0 Z " fill="#5F942C" transform="translate(281,135)"/>
<path d="M0 0 C1 3 1 3 -0.3125 5.6875 C-0.869375 6.450625 -1.42625 7.21375 -2 8 C-2.66 8 -3.32 8 -4 8 C-4 8.99 -4 9.98 -4 11 C-4.66 11 -5.32 11 -6 11 C-6.33 10.01 -6.66 9.02 -7 8 C-5.56640625 5.95703125 -5.56640625 5.95703125 -3.5625 3.8125 C-2.90378906 3.09707031 -2.24507812 2.38164063 -1.56640625 1.64453125 C-1.04949219 1.10183594 -0.53257812 0.55914062 0 0 Z " fill="#25719E" transform="translate(136,107)"/>
<path d="M0 0 C0.99 0 1.98 0 3 0 C2.34 2.31 1.68 4.62 1 7 C-0.32 7.33 -1.64 7.66 -3 8 C-1.125 2.25 -1.125 2.25 0 0 Z " fill="#1C6E9B" transform="translate(30,58)"/>
<path d="M0 0 C1.32 0 2.64 0 4 0 C4.33 1.98 4.66 3.96 5 6 C3.35 6 1.7 6 0 6 C0 4.02 0 2.04 0 0 Z " fill="#689836" transform="translate(562,174)"/>
<path d="M0 0 C0 0.33 0 0.66 0 1 C-1.98 1 -3.96 1 -6 1 C-6 4.96 -6 8.92 -6 13 C-6.33 13 -6.66 13 -7 13 C-7 10.03 -7 7.06 -7 4 C-7.99 4 -8.98 4 -10 4 C-10 3.34 -10 2.68 -10 2 C-6.3558226 -0.4294516 -4.28758728 -0.16179575 0 0 Z " fill="#95B473" transform="translate(325,133)"/>
<path d="M0 0 C4.59306496 1.4859916 7.43569245 3.85014682 11 7 C10.34 7.66 9.68 8.32 9 9 C8.67 8.01 8.34 7.02 8 6 C6.35 5.67 4.7 5.34 3 5 C3 4.34 3 3.68 3 3 C2.01 2.67 1.02 2.34 0 2 C0 1.34 0 0.68 0 0 Z " fill="#3375A1" transform="translate(382,35)"/>
<path d="M0 0 C0.66 0.33 1.32 0.66 2 1 C-2.625 5.875 -2.625 5.875 -6 7 C-6.66 7.66 -7.32 8.32 -8 9 C-8.66 8.34 -9.32 7.68 -10 7 C-6.7 4.69 -3.4 2.38 0 0 Z " fill="#32759E" transform="translate(341,34)"/>
<path d="M0 0 C2.86274764 2.86274764 2.9615008 6.10388111 3 10 C2.0625 12.5 2.0625 12.5 1 14 C0.855625 12.948125 0.71125 11.89625 0.5625 10.8125 C0.23503262 8.59299887 -0.13831033 6.37760349 -0.625 4.1875 C-1 2 -1 2 0 0 Z " fill="#83AA58" transform="translate(325,161)"/>
<path d="M0 0 C1.68426809 3.25530808 2.88786134 6.50470706 4 10 C3.01 10.33 2.02 10.66 1 11 C0.34 10.34 -0.32 9.68 -1 9 C-0.9765625 6.8359375 -0.9765625 6.8359375 -0.625 4.375 C-0.51414062 3.55773437 -0.40328125 2.74046875 -0.2890625 1.8984375 C-0.19367188 1.27195313 -0.09828125 0.64546875 0 0 Z " fill="#7EA757" transform="translate(480,144)"/>
<path d="M0 0 C0.66 0 1.32 0 2 0 C2 0.66 2 1.32 2 2 C2.66 2 3.32 2 4 2 C3.625 4.4375 3.625 4.4375 3 7 C2.01 7.495 2.01 7.495 1 8 C1 7.34 1 6.68 1 6 C0.34 5.67 -0.32 5.34 -1 5 C-0.67 3.35 -0.34 1.7 0 0 Z " fill="#6E9A3D" transform="translate(269,137)"/>
<path d="M0 0 C0.66 0 1.32 0 2 0 C2 0.66 2 1.32 2 2 C2.99 2.33 3.98 2.66 5 3 C3.56445975 3.50559908 2.1264798 4.0042749 0.6875 4.5 C-0.51326172 4.91765625 -0.51326172 4.91765625 -1.73828125 5.34375 C-4 6 -4 6 -7 6 C-7 5.34 -7 4.68 -7 4 C-4.69 3.01 -2.38 2.02 0 1 C0 0.67 0 0.34 0 0 Z " fill="#7DA753" transform="translate(109,133)"/>
<path d="M0 0 C0.33 1.65 0.66 3.3 1 5 C0.01 4.67 -0.98 4.34 -2 4 C-2 3.01 -2 2.02 -2 1 C-6.29 1 -10.58 1 -15 1 C-15 0.67 -15 0.34 -15 0 C-13.06325815 -0.19517554 -11.12555991 -0.38087873 -9.1875 -0.5625 C-8.10855469 -0.66691406 -7.02960937 -0.77132812 -5.91796875 -0.87890625 C-3 -1 -3 -1 0 0 Z " fill="#759E45" transform="translate(546,134)"/>
<path d="M0 0 C1.41377341 2.63904371 2.37240135 5.07120629 3 8 C4.32 8.33 5.64 8.66 7 9 C6.01 9 5.02 9 4 9 C3.67 9.66 3.34 10.32 3 11 C3 10.34 3 9.68 3 9 C1.68 8.67 0.36 8.34 -1 8 C-0.67 5.36 -0.34 2.72 0 0 Z " fill="#82A557" transform="translate(380,166)"/>
<path d="M0 0 C1.32 0.99 2.64 1.98 4 3 C4.33 2.34 4.66 1.68 5 1 C5 3.31 5 5.62 5 8 C3.02 7.34 1.04 6.68 -1 6 C-0.67 4.02 -0.34 2.04 0 0 Z " fill="#7EA756" transform="translate(376,140)"/>
<path d="M0 0 C1.125 3.75 1.125 3.75 0 6 C0.66 6 1.32 6 2 6 C1.67 6.99 1.34 7.98 1 9 C0.01 9 -0.98 9 -2 9 C-2 6.69 -2 4.38 -2 2 C-1.34 2 -0.68 2 0 2 C0 1.34 0 0.68 0 0 Z " fill="#589122" transform="translate(560,145)"/>
<path d="M0 0 C2.33294775 -0.04241723 4.66702567 -0.04092937 7 0 C8 1 8 1 8.0625 4.0625 C8.041875 5.031875 8.02125 6.00125 8 7 C5.03 6.505 5.03 6.505 2 6 C3.32 5.67 4.64 5.34 6 5 C6 3.68 6 2.36 6 1 C4.02 1 2.04 1 0 1 C0 0.67 0 0.34 0 0 Z " fill="#8BAB66" transform="translate(480,133)"/>
<path d="M0 0 C1.65 0 3.3 0 5 0 C5 2.31 5 4.62 5 7 C2.5 5.1875 2.5 5.1875 0 3 C0 2.01 0 1.02 0 0 Z " fill="#739A43" transform="translate(281,136)"/>
<path d="M0 0 C3.63 0.66 7.26 1.32 11 2 C10.34 2.66 9.68 3.32 9 4 C7.68 4 6.36 4 5 4 C5 3.34 5 2.68 5 2 C3.35 2.33 1.7 2.66 0 3 C0 2.01 0 1.02 0 0 Z " fill="#61932C" transform="translate(106,131)"/>
<path d="M0 0 C0.99 0.33 1.98 0.66 3 1 C2.67 2.98 2.34 4.96 2 7 C1.01 6.67 0.02 6.34 -1 6 C-1.33 4.35 -1.66 2.7 -2 1 C-1.34 0.67 -0.68 0.34 0 0 Z " fill="#739D42" transform="translate(454,172)"/>
<path d="M0 0 C2.97 0 5.94 0 9 0 C9 0.33 9 0.66 9 1 C6.69 1 4.38 1 2 1 C1.67 3.64 1.34 6.28 1 9 C0.67 9 0.34 9 0 9 C-1.125 2.25 -1.125 2.25 0 0 Z " fill="#9FBD84" transform="translate(551,169)"/>
<path d="M0 0 C2.0625 0.4375 2.0625 0.4375 4 1 C3.6875 2.9375 3.6875 2.9375 3 5 C2.01 5.33 1.02 5.66 0 6 C-0.38218767 4.34385343 -0.71395102 2.67542976 -1 1 C-0.67 0.67 -0.34 0.34 0 0 Z " fill="#5D922B" transform="translate(363,160)"/>
<path d="M0 0 C1.04449911 3.13349732 0.93423645 3.98968256 0 7 C-1.32 6.67 -2.64 6.34 -4 6 C-4 5.01 -4 4.02 -4 3 C-2 1.3125 -2 1.3125 0 0 Z " fill="#5F932B" transform="translate(362,151)"/>
<path d="M0 0 C0.33 0 0.66 0 1 0 C1.33 2.97 1.66 5.94 2 9 C1.34 9 0.68 9 0 9 C-0.66 9.99 -1.32 10.98 -2 12 C-1 3.42857143 -1 3.42857143 0 0 Z " fill="#D7E3CB" transform="translate(556,146)"/>
<path d="M0 0 C1.65 0 3.3 0 5 0 C4.67 2.64 4.34 5.28 4 8 C3.01 7.67 2.02 7.34 1 7 C0.67 4.69 0.34 2.38 0 0 Z " fill="#76A04E" transform="translate(554,143)"/>
<path d="M0 0 C0.66 0.33 1.32 0.66 2 1 C1.67 1.99 1.34 2.98 1 4 C-2.96 3.67 -6.92 3.34 -11 3 C-11 2.67 -11 2.34 -11 2 C-10.06027344 1.90912109 -10.06027344 1.90912109 -9.1015625 1.81640625 C-7.87566406 1.69072266 -7.87566406 1.69072266 -6.625 1.5625 C-5.81289062 1.48128906 -5.00078125 1.40007812 -4.1640625 1.31640625 C-1.95727195 1.10909886 -1.95727195 1.10909886 0 0 Z " fill="#779F4B" transform="translate(94,169)"/>
<path d="M0 0 C0.33 0.66 0.66 1.32 1 2 C0 5 0 5 -1.8125 6.25 C-4.33943414 7.11637742 -5.52221994 6.88492145 -8 6 C-7.05125 5.38125 -6.1025 4.7625 -5.125 4.125 C-2.05554891 2.18029031 -2.05554891 2.18029031 0 0 Z " fill="#2F739E" transform="translate(382,104)"/>
<path d="M0 0 C2.0625 0.4375 2.0625 0.4375 4 1 C2.1875 3 2.1875 3 0 5 C-0.99 5 -1.98 5 -3 5 C-1.125 1.125 -1.125 1.125 0 0 Z " fill="#709D41" transform="translate(107,158)"/>
<path d="M0 0 C1.32 0.33 2.64 0.66 4 1 C4.33 2.32 4.66 3.64 5 5 C3.35 4.67 1.7 4.34 0 4 C0 2.68 0 1.36 0 0 Z " fill="#6C993A" transform="translate(377,138)"/>
<path d="M0 0 C0.99 0.33 1.98 0.66 3 1 C3.33 2.98 3.66 4.96 4 7 C4.66 7 5.32 7 6 7 C5.67 7.66 5.34 8.32 5 9 C1.9083091 6.47043472 1.09068668 3.77545388 0 0 Z " fill="#85A75D" transform="translate(31,175)"/>
<path d="M0 0 C3.63 0 7.26 0 11 0 C10.67 1.32 10.34 2.64 10 4 C9.34 3.67 8.68 3.34 8 3 C8 2.34 8 1.68 8 1 C5.36 1 2.72 1 0 1 C0 0.67 0 0.34 0 0 Z " fill="#7BA44E" transform="translate(577,175)"/>
<path d="M0 0 C0.93065133 2.60582371 1.14917407 3.64198224 0.0625 6.25 C-0.4634375 7.11625 -0.4634375 7.11625 -1 8 C-1.99 7.34 -2.98 6.68 -4 6 C-2.68 4.02 -1.36 2.04 0 0 Z " fill="#7DA754" transform="translate(225,148)"/>
<path d="M0 0 C1.1446875 0.2784375 1.1446875 0.2784375 2.3125 0.5625 C5.08967375 1.22819173 5.08967375 1.22819173 8 0 C8 0.66 8 1.32 8 2 C6.37373596 3.38232443 4.7074998 4.71937515 3 6 C2.87625 5.195625 2.7525 4.39125 2.625 3.5625 C2.315625 2.2940625 2.315625 2.2940625 2 1 C1.34 0.67 0.68 0.34 0 0 Z " fill="#7AA452" transform="translate(386,139)"/>
<path d="M0 0 C1.98 0.99 1.98 0.99 4 2 C4 3.32 4 4.64 4 6 C3.01 6 2.02 6 1 6 C0.67 4.02 0.34 2.04 0 0 Z " fill="#73A048" transform="translate(388,134)"/>
<path d="M0 0 C1.32 0.66 2.64 1.32 4 2 C3.34 3.32 2.68 4.64 2 6 C1.01 5.01 0.02 4.02 -1 3 C-0.67 2.01 -0.34 1.02 0 0 Z " fill="#739F45" transform="translate(362,135)"/>
<path d="M0 0 C0.66 0.66 1.32 1.32 2 2 C1.625 4.125 1.625 4.125 1 6 C-0.98 5.34 -2.96 4.68 -5 4 C-4.360625 3.71125 -3.72125 3.4225 -3.0625 3.125 C-0.84793921 2.17176549 -0.84793921 2.17176549 0 0 Z " fill="#779E49" transform="translate(325,134)"/>
<path d="M0 0 C0.66 0 1.32 0 2 0 C2.54372951 3.05847848 3 5.88772805 3 9 C0.9375 6.75 0.9375 6.75 -1 4 C-0.75 1.6875 -0.75 1.6875 0 0 Z " fill="#206B99" transform="translate(550,86)"/>
<path d="M0 0 C2.97 0.495 2.97 0.495 6 1 C1.25 5 1.25 5 -1 5 C-0.67 3.35 -0.34 1.7 0 0 Z " fill="#719E47" transform="translate(148,160)"/>
<path d="M0 0 C1.32 0.66 2.64 1.32 4 2 C3.34 3.65 2.68 5.3 2 7 C0.4375 5.1875 0.4375 5.1875 -1 3 C-0.67 2.01 -0.34 1.02 0 0 Z " fill="#63942D" transform="translate(480,152)"/>
<path d="M0 0 C0.66 0 1.32 0 2 0 C1.67 1.98 1.34 3.96 1 6 C0.01 6 -0.98 6 -2 6 C-1.125 1.125 -1.125 1.125 0 0 Z " fill="#5E942A" transform="translate(392,141)"/>
<path d="M0 0 C0.33 0 0.66 0 1 0 C1.36923077 5.53846154 1.36923077 5.53846154 -0.5 7.875 C-1.2425 8.431875 -1.2425 8.431875 -2 9 C-1.125 1.125 -1.125 1.125 0 0 Z " fill="#79A34D" transform="translate(233,128)"/>
<path d="M0 0 C0.33 0.99 0.66 1.98 1 3 C-1 5 -1 5 -3.625 5.125 C-4.40875 5.08375 -5.1925 5.0425 -6 5 C-2.25 1.125 -2.25 1.125 0 0 Z " fill="#3078A3" transform="translate(127,117)"/>
<path d="M0 0 C0.33 0.99 0.66 1.98 1 3 C1.66 3.33 2.32 3.66 3 4 C1.02 4.66 -0.96 5.32 -3 6 C-1.125 1.125 -1.125 1.125 0 0 Z " fill="#2E77A0" transform="translate(186,70)"/>
</svg>
