<?xml version="1.0" encoding="UTF-8"?>
<svg version="1.1" xmlns="http://www.w3.org/2000/svg" width="50" height="50">
<path d="M0 0 C5.56340585 3.36669624 9.53349183 8.25193794 11.5 14.4375 C12.30594257 22.2813829 12.59671889 30.02934467 7.5 36.4375 C3.04867668 41.14197914 -1.19064516 44.09747071 -7.76953125 44.7734375 C-16.04371997 44.8646634 -22.08428015 44.61560264 -28.2421875 38.7890625 C-34.17397269 32.28964236 -34.96296445 26.57688134 -34.80859375 17.88671875 C-34.22339005 11.3457711 -31.85547257 7.43687235 -27.0625 3.0625 C-19.84507341 -2.93248543 -8.52200107 -3.84066973 0 0 Z M-27.875 9 C-32.43649379 14.47623185 -32.12226676 20.59256568 -31.5 27.4375 C-29.77883043 33.09869631 -25.25380196 37.15064853 -20.5 40.4375 C-15.0029273 42.26985757 -8.53352755 42.6147627 -3.07421875 40.49609375 C2.22187345 37.31444891 6.09461411 33.17185878 8.5 27.4375 C9.43256519 20.56596704 9.16717526 14.80751171 5 9.125 C1.23402845 4.888282 -2.30028498 1.7228547 -8.171875 1.19921875 C-17.12574998 0.98332583 -21.76625484 2.19969878 -27.875 9 Z " fill="#000000" transform="translate(36.5,3.5625)"/>
<path d="M0 0 C3.74580148 0.5749763 5.62517806 2.13637062 8.3125 4.75 C9.38951172 5.76320313 9.38951172 5.76320313 10.48828125 6.796875 C12 9 12 9 11.97265625 11.49609375 C10.81524087 14.4756249 9.41138836 16.08892451 7.125 18.3125 C6.42632812 19.00988281 5.72765625 19.70726563 5.0078125 20.42578125 C3 22 3 22 0 22 C0.57575664 18.64749299 1.59306263 17.06181371 4.0625 14.75 C4.61035156 14.22921875 5.15820312 13.7084375 5.72265625 13.171875 C6.35494141 12.59179688 6.35494141 12.59179688 7 12 C5.82633684 9.11919043 4.64907259 7.65742801 2.375 5.4375 C0 3 0 3 0 0 Z " fill="#000000" transform="translate(21,14)"/>
</svg>
