<?xml version="1.0" encoding="UTF-8"?>
<svg version="1.1" xmlns="http://www.w3.org/2000/svg" width="91" height="69">
<path d="M0 0 C0 9.9 0 19.8 0 30 C-2.64 29.34 -5.28 28.68 -8 28 C-12.29711956 28.24292017 -12.29711956 28.24292017 -15.75 30.5625 C-16.1625 31.036875 -16.575 31.51125 -17 32 C-17.66 32 -18.32 32 -19 32 C-23 25.25 -23 25.25 -23 23 C-23.69867188 22.86722656 -24.39734375 22.73445313 -25.1171875 22.59765625 C-26.02726562 22.42105469 -26.93734375 22.24445312 -27.875 22.0625 C-29.23238281 21.80146484 -29.23238281 21.80146484 -30.6171875 21.53515625 C-33 21 -33 21 -35 20 C-33.56623011 15.69869034 -30.38384483 14.76374995 -26.5625 12.8125 C-25.86833984 12.44447266 -25.17417969 12.07644531 -24.45898438 11.69726562 C-19.28964228 9 -19.28964228 9 -17 9 C-17 9.66 -17 10.32 -17 11 C-17.66 11 -18.32 11 -19 11 C-19 11.66 -19 12.32 -19 13 C-23.95 15.475 -23.95 15.475 -29 18 C-27.02 18.66 -25.04 19.32 -23 20 C-18.71 16.04 -14.42 12.08 -10 8 C-11.98 8.66 -13.96 9.32 -16 10 C-16 9.01 -16 8.02 -16 7 C-13.89983377 5.82558465 -11.79541245 4.66035988 -9.6875 3.5 C-9.09259766 3.16613281 -8.49769531 2.83226562 -7.88476562 2.48828125 C-5.04171156 0.93174886 -3.29339012 0 0 0 Z M-3 5 C-3.93059166 6.11511858 -4.81838345 7.266018 -5.6875 8.4296875 C-6.22117187 9.14253906 -6.75484375 9.85539062 -7.3046875 10.58984375 C-7.86414062 11.34394531 -8.42359375 12.09804688 -9 12.875 C-9.55945313 13.62136719 -10.11890625 14.36773437 -10.6953125 15.13671875 C-13.5877976 18.91731603 -13.5877976 18.91731603 -16 23 C-11.38 24.32 -6.76 25.64 -2 27 C-2 19.74 -2 12.48 -2 5 C-2.33 5 -2.66 5 -3 5 Z M-18.5625 19.5 C-19.7690625 20.7375 -19.7690625 20.7375 -21 22 C-20.34 23.32 -19.68 24.64 -19 26 C-18.71125 25.2575 -18.4225 24.515 -18.125 23.75 C-17.17697356 21.43260203 -16.15154089 19.22082885 -15 17 C-16.47736982 16.88361269 -16.47736982 16.88361269 -18.5625 19.5 Z M-17 25 C-16.34 25.66 -15.68 26.32 -15 27 C-15 26.34 -15 25.68 -15 25 C-15.66 25 -16.32 25 -17 25 Z " fill="#00C9B7" transform="translate(55,15)"/>
<path d="M0 0 C-1.55603771 3.81936528 -3.95604931 6.26044438 -7 9 C-7.66 9 -8.32 9 -9 9 C-8.82701599 6.66471585 -8.29774631 5.30822418 -6.66796875 3.62109375 C-2.42788462 0 -2.42788462 0 0 0 Z " fill="#00C9B7" transform="translate(29,39)"/>
<path d="M0 0 C-1.28299758 2.86207152 -2.530636 5.0245088 -5 7 C-5.99 7 -6.98 7 -8 7 C-8 6.34 -8 5.68 -8 5 C-7.34 5 -6.68 5 -6 5 C-6 4.34 -6 3.68 -6 3 C-2.53846154 0 -2.53846154 0 0 0 Z " fill="#00C9B7" transform="translate(33,44)"/>
<path d="M0 0 C-1.04874998 2.62187494 -1.64931313 3.79371361 -4.125 5.25 C-4.74375 5.4975 -5.3625 5.745 -6 6 C-5.6875 4.125 -5.6875 4.125 -5 2 C-2 0 -2 0 0 0 Z " fill="#00C9B7" transform="translate(46,44)"/>
<path d="M0 0 C0.99 0 1.98 0 3 0 C3 0.66 3 1.32 3 2 C1.68 2.33 0.36 2.66 -1 3 C-0.67 2.01 -0.34 1.02 0 0 Z " fill="#00C9B7" transform="translate(17,48)"/>
</svg>
